<svg width="141" height="173" viewBox="0 0 141 173" fill="none" xmlns="http://www.w3.org/2000/svg">
<g filter="url(#filter0_i)">
<path d="M70.2491 1L72.7581 5.5132L78.278 11.5308L86.3069 16.5455L95.8412 21.5601L104.874 25.0704L116.415 28.0792L126.953 30.085L130.968 31.088H140V62.1789L138.495 78.2258L136.989 88.2551L135.484 95.2757L130.968 108.815L121.935 128.874L112.401 142.413L102.365 152.944L92.3285 161.469L81.2888 167.487L70.2491 172M70.7509 1L68.2419 5.5132L62.722 11.5308L54.6931 16.5455L45.1588 21.5601L36.1264 25.0704L24.5848 28.0792L14.0469 30.085L10.0325 31.088H1V62.1789L2.50542 78.2258L4.01083 88.2551L5.51625 95.2757L10.0325 108.815L19.065 128.874L28.5993 142.413L38.6354 152.944L48.6715 161.469L59.7112 167.487L70.7509 172" stroke="#E61B3C" stroke-width="2"/>
<path d="M70.2491 1L72.7581 5.5132L78.278 11.5308L86.3069 16.5455L95.8412 21.5601L104.874 25.0704L116.415 28.0792L126.953 30.085L130.968 31.088H140V62.1789L138.495 78.2258L136.989 88.2551L135.484 95.2757L130.968 108.815L121.935 128.874L112.401 142.413L102.365 152.944L92.3285 161.469L81.2888 167.487L70.2491 172M70.7509 1L68.2419 5.5132L62.722 11.5308L54.6931 16.5455L45.1588 21.5601L36.1264 25.0704L24.5848 28.0792L14.0469 30.085L10.0325 31.088H1V62.1789L2.50542 78.2258L4.01083 88.2551L5.51625 95.2757L10.0325 108.815L19.065 128.874L28.5993 142.413L38.6354 152.944L48.6715 161.469L59.7112 167.487L70.7509 172" stroke="url(#paint0_linear)" stroke-width="2"/>
<path d="M70.2491 1L72.7581 5.5132L78.278 11.5308L86.3069 16.5455L95.8412 21.5601L104.874 25.0704L116.415 28.0792L126.953 30.085L130.968 31.088H140V62.1789L138.495 78.2258L136.989 88.2551L135.484 95.2757L130.968 108.815L121.935 128.874L112.401 142.413L102.365 152.944L92.3285 161.469L81.2888 167.487L70.2491 172M70.7509 1L68.2419 5.5132L62.722 11.5308L54.6931 16.5455L45.1588 21.5601L36.1264 25.0704L24.5848 28.0792L14.0469 30.085L10.0325 31.088H1V62.1789L2.50542 78.2258L4.01083 88.2551L5.51625 95.2757L10.0325 108.815L19.065 128.874L28.5993 142.413L38.6354 152.944L48.6715 161.469L59.7112 167.487L70.7509 172" stroke="url(#paint1_linear)" stroke-width="2"/>
</g>
<g filter="url(#filter1_d)">
<path d="M70.2852 13L72.4332 16.9326L77.1588 22.176L84.0325 26.5455L92.1949 30.915L99.9278 33.9736L109.809 36.5953L118.83 38.3431L122.267 39.217H130V66.3079L128.711 80.2903L127.422 89.0293L126.134 95.1466L122.267 106.944L114.534 124.422L106.372 136.22L97.7798 145.396L89.1877 152.824L79.7365 158.067L70.2852 162M70.7148 13L68.5668 16.9326L63.8412 22.176L56.9675 26.5455L48.8051 30.915L41.0722 33.9736L31.1913 36.5953L22.1697 38.3431L18.7329 39.217H11V66.3079L12.2888 80.2903L13.5776 89.0293L14.8664 95.1466L18.7329 106.944L26.4657 124.422L34.6282 136.22L43.2202 145.396L51.8123 152.824L61.2635 158.067L70.7148 162" stroke="#A68A5C"/>
<path d="M70.2852 13L72.4332 16.9326L77.1588 22.176L84.0325 26.5455L92.1949 30.915L99.9278 33.9736L109.809 36.5953L118.83 38.3431L122.267 39.217H130V66.3079L128.711 80.2903L127.422 89.0293L126.134 95.1466L122.267 106.944L114.534 124.422L106.372 136.22L97.7798 145.396L89.1877 152.824L79.7365 158.067L70.2852 162M70.7148 13L68.5668 16.9326L63.8412 22.176L56.9675 26.5455L48.8051 30.915L41.0722 33.9736L31.1913 36.5953L22.1697 38.3431L18.7329 39.217H11V66.3079L12.2888 80.2903L13.5776 89.0293L14.8664 95.1466L18.7329 106.944L26.4657 124.422L34.6282 136.22L43.2202 145.396L51.8123 152.824L61.2635 158.067L70.7148 162" stroke="url(#paint2_linear)"/>
</g>
<g filter="url(#filter2_d)">
<path fill-rule="evenodd" clip-rule="evenodd" d="M114 56L103.202 66.2326V84.8558H114L103.202 94.6791V101.433L103.107 108.186V112.074L102.724 115.349L101.769 119.033L100.813 121.557L98.7111 124.763L96.4178 127.219L94.5067 129.265L92.0222 131.312L88.9644 133.153L86.0978 134.586L83.4222 135.405L80.3644 136.019L76.16 136.633H73.6756L70.2356 136.428L67.9422 136.019L65.6489 135.609L61.8267 134.586L53.0356 144L59.1511 133.563L55.7111 132.54L52.6533 130.698L49.9778 128.651L46.5378 124.763L44.6267 121.557L42.7156 117.395L41.5689 113.916L40.8044 111.873L40.2311 110.437L39.0844 110.001L28 105.73H52.6533V109.414L53.0356 112.688L53.9911 115.758L55.7111 118.419L57.4311 119.835L59.5333 120.874L62.5911 121.557H66.0311L77.88 96.9302H45.3911L68.1333 66.2326L45.3911 56H114ZM87.0533 66.2326L73.6756 84.8558H87.0533V66.2326ZM85.3333 115.349L84.1867 117.395L82.0844 119.647L79.4089 120.874L76.7333 121.557H73.6756L87.0533 108.391L86.6711 112.688L85.3333 115.349Z" fill="#B4293F"/>
<path fill-rule="evenodd" clip-rule="evenodd" d="M114 56L103.202 66.2326V84.8558H114L103.202 94.6791V101.433L103.107 108.186V112.074L102.724 115.349L101.769 119.033L100.813 121.557L98.7111 124.763L96.4178 127.219L94.5067 129.265L92.0222 131.312L88.9644 133.153L86.0978 134.586L83.4222 135.405L80.3644 136.019L76.16 136.633H73.6756L70.2356 136.428L67.9422 136.019L65.6489 135.609L61.8267 134.586L53.0356 144L59.1511 133.563L55.7111 132.54L52.6533 130.698L49.9778 128.651L46.5378 124.763L44.6267 121.557L42.7156 117.395L41.5689 113.916L40.8044 111.873L40.2311 110.437L39.0844 110.001L28 105.73H52.6533V109.414L53.0356 112.688L53.9911 115.758L55.7111 118.419L57.4311 119.835L59.5333 120.874L62.5911 121.557H66.0311L77.88 96.9302H45.3911L68.1333 66.2326L45.3911 56H114ZM87.0533 66.2326L73.6756 84.8558H87.0533V66.2326ZM85.3333 115.349L84.1867 117.395L82.0844 119.647L79.4089 120.874L76.7333 121.557H73.6756L87.0533 108.391L86.6711 112.688L85.3333 115.349Z" fill="url(#paint3_radial)"/>
<path d="M87.0533 84.8558H73.6756L87.0533 66.2326V84.8558ZM87.0533 84.8558H103.202M103.202 84.8558H114L103.202 94.6791M103.202 84.8558V66.2326L114 56H45.3911L68.1333 66.2326L45.3911 96.9302H77.88L66.0311 121.557M66.0311 121.557L59.1511 133.563M66.0311 121.557H62.5911L59.5333 120.874L57.4311 119.835L55.7111 118.419L53.9911 115.758L53.0356 112.688L52.6533 109.414V105.73H28L39.0844 110.001L40.2311 110.437L40.8044 111.873L41.5689 113.916L42.7156 117.395L44.6267 121.557L46.5378 124.763L49.9778 128.651L52.6533 130.698L55.7111 132.54L59.1511 133.563M87.0533 108.391L73.6756 121.557M87.0533 108.391L103.202 94.6791M87.0533 108.391L86.6711 112.688L85.3333 115.349L84.1867 117.395L82.0844 119.647L79.4089 120.874L76.7333 121.557H73.6756M73.6756 121.557L61.8267 134.586M103.202 94.6791V101.433L103.107 108.186V112.074L102.724 115.349L101.769 119.033L100.813 121.557L98.7111 124.763L96.4178 127.219L94.5067 129.265L92.0222 131.312L88.9644 133.153L86.0978 134.586L83.4222 135.405L80.3644 136.019L76.16 136.633H73.6756L70.2356 136.428L67.9422 136.019L65.6489 135.609L61.8267 134.586M61.8267 134.586L53.0356 144L59.1511 133.563" stroke="#AB9267"/>
<path d="M87.0533 84.8558H73.6756L87.0533 66.2326V84.8558ZM87.0533 84.8558H103.202M103.202 84.8558H114L103.202 94.6791M103.202 84.8558V66.2326L114 56H45.3911L68.1333 66.2326L45.3911 96.9302H77.88L66.0311 121.557M66.0311 121.557L59.1511 133.563M66.0311 121.557H62.5911L59.5333 120.874L57.4311 119.835L55.7111 118.419L53.9911 115.758L53.0356 112.688L52.6533 109.414V105.73H28L39.0844 110.001L40.2311 110.437L40.8044 111.873L41.5689 113.916L42.7156 117.395L44.6267 121.557L46.5378 124.763L49.9778 128.651L52.6533 130.698L55.7111 132.54L59.1511 133.563M87.0533 108.391L73.6756 121.557M87.0533 108.391L103.202 94.6791M87.0533 108.391L86.6711 112.688L85.3333 115.349L84.1867 117.395L82.0844 119.647L79.4089 120.874L76.7333 121.557H73.6756M73.6756 121.557L61.8267 134.586M103.202 94.6791V101.433L103.107 108.186V112.074L102.724 115.349L101.769 119.033L100.813 121.557L98.7111 124.763L96.4178 127.219L94.5067 129.265L92.0222 131.312L88.9644 133.153L86.0978 134.586L83.4222 135.405L80.3644 136.019L76.16 136.633H73.6756L70.2356 136.428L67.9422 136.019L65.6489 135.609L61.8267 134.586M61.8267 134.586L53.0356 144L59.1511 133.563" stroke="url(#paint4_linear)"/>
</g>
<g opacity="0.85">
<g filter="url(#filter3_b)">
<ellipse cx="36.9075" cy="91.6722" rx="3.23852" ry="3.23181" fill="#61DBFB" fill-opacity="0.63"/>
<ellipse cx="36.9075" cy="91.6722" rx="3.23852" ry="3.23181" fill="url(#paint5_linear)"/>
</g>
<g filter="url(#filter4_d)">
<path d="M43.4161 98.3574C43.893 97.8815 44.0813 97.2269 44.0754 96.5234C44.0696 95.8224 43.8727 95.0323 43.5327 94.2096C42.8517 92.5619 41.5571 90.6877 39.8232 88.9575C38.0893 87.2272 36.2113 85.9352 34.5602 85.2557C33.7357 84.9164 32.944 84.7199 32.2415 84.7141C31.5365 84.7082 30.8806 84.8961 30.4037 85.372C29.9268 85.8479 29.7385 86.5025 29.7444 87.206C29.7502 87.9071 29.9471 88.6971 30.2871 89.5199C30.9681 91.1676 32.2627 93.0417 33.9966 94.772C35.7305 96.5023 37.6085 97.7942 39.2596 98.4738C40.0841 98.8131 40.8758 99.0096 41.5783 99.0154C42.2833 99.0212 42.9392 98.8333 43.4161 98.3574Z" stroke="#61DBFB" stroke-opacity="0.47"/>
<path d="M43.4161 98.3574C43.893 97.8815 44.0813 97.2269 44.0754 96.5234C44.0696 95.8224 43.8727 95.0323 43.5327 94.2096C42.8517 92.5619 41.5571 90.6877 39.8232 88.9575C38.0893 87.2272 36.2113 85.9352 34.5602 85.2557C33.7357 84.9164 32.944 84.7199 32.2415 84.7141C31.5365 84.7082 30.8806 84.8961 30.4037 85.372C29.9268 85.8479 29.7385 86.5025 29.7444 87.206C29.7502 87.9071 29.9471 88.6971 30.2871 89.5199C30.9681 91.1676 32.2627 93.0417 33.9966 94.772C35.7305 96.5023 37.6085 97.7942 39.2596 98.4738C40.0841 98.8131 40.8758 99.0096 41.5783 99.0154C42.2833 99.0212 42.9392 98.8333 43.4161 98.3574Z" stroke="url(#paint6_linear)"/>
</g>
<g filter="url(#filter5_d)">
<path d="M45.4621 92.1058C45.4621 90.7899 44.3043 89.7641 42.8244 89.0959C41.2981 88.4069 39.2246 87.9937 36.961 87.9937C34.6974 87.9937 32.624 88.4069 31.0977 89.0959C29.6178 89.7641 28.46 90.7899 28.46 92.1058C28.46 93.4216 29.6178 94.4474 31.0977 95.1156C32.624 95.8046 34.6974 96.2178 36.961 96.2178C39.2246 96.2178 41.2981 95.8046 42.8244 95.1156C44.3043 94.4474 45.4621 93.4216 45.4621 92.1058Z" stroke="#61DBFB" stroke-opacity="0.47"/>
<path d="M45.4621 92.1058C45.4621 90.7899 44.3043 89.7641 42.8244 89.0959C41.2981 88.4069 39.2246 87.9937 36.961 87.9937C34.6974 87.9937 32.624 88.4069 31.0977 89.0959C29.6178 89.7641 28.46 90.7899 28.46 92.1058C28.46 93.4216 29.6178 94.4474 31.0977 95.1156C32.624 95.8046 34.6974 96.2178 36.961 96.2178C39.2246 96.2178 41.2981 95.8046 42.8244 95.1156C44.3043 94.4474 45.4621 93.4216 45.4621 92.1058Z" stroke="url(#paint7_linear)"/>
</g>
<g filter="url(#filter6_d)">
<path d="M30.4315 98.3239C30.9075 98.799 31.5614 98.9885 32.2646 98.9849C32.9653 98.9813 33.7543 98.7878 34.5756 98.452C36.2201 97.7795 38.0888 96.497 39.8123 94.7771C41.5357 93.0572 42.8209 91.1924 43.4948 89.5513C43.8313 88.7317 44.0252 87.9443 44.0288 87.2451C44.0324 86.5433 43.8425 85.8908 43.3664 85.4157C42.8904 84.9407 42.2365 84.7511 41.5333 84.7547C40.8326 84.7583 40.0435 84.9518 39.2223 85.2877C37.5778 85.9602 35.7091 87.2427 33.9856 88.9626C32.2622 90.6824 30.977 92.5473 30.3031 94.1884C29.9666 95.0079 29.7727 95.7953 29.7691 96.4945C29.7655 97.1963 29.9554 97.8488 30.4315 98.3239Z" stroke="#61DBFB" stroke-opacity="0.47"/>
<path d="M30.4315 98.3239C30.9075 98.799 31.5614 98.9885 32.2646 98.9849C32.9653 98.9813 33.7543 98.7878 34.5756 98.452C36.2201 97.7795 38.0888 96.497 39.8123 94.7771C41.5357 93.0572 42.8209 91.1924 43.4948 89.5513C43.8313 88.7317 44.0252 87.9443 44.0288 87.2451C44.0324 86.5433 43.8425 85.8908 43.3664 85.4157C42.8904 84.9407 42.2365 84.7511 41.5333 84.7547C40.8326 84.7583 40.0435 84.9518 39.2223 85.2877C37.5778 85.9602 35.7091 87.2427 33.9856 88.9626C32.2622 90.6824 30.977 92.5473 30.3031 94.1884C29.9666 95.0079 29.7727 95.7953 29.7691 96.4945C29.7655 97.1963 29.9554 97.8488 30.4315 98.3239Z" stroke="url(#paint8_linear)"/>
</g>
</g>
<defs>
<filter id="filter0_i" x="0" y="0.513672" width="141" height="176.412" filterUnits="userSpaceOnUse" color-interpolation-filters="sRGB">
<feFlood flood-opacity="0" result="BackgroundImageFix"/>
<feBlend mode="normal" in="SourceGraphic" in2="BackgroundImageFix" result="shape"/>
<feColorMatrix in="SourceAlpha" type="matrix" values="0 0 0 0 0 0 0 0 0 0 0 0 0 0 0 0 0 0 127 0" result="hardAlpha"/>
<feOffset dy="4"/>
<feGaussianBlur stdDeviation="2"/>
<feComposite in2="hardAlpha" operator="arithmetic" k2="-1" k3="1"/>
<feColorMatrix type="matrix" values="0 0 0 0 0 0 0 0 0 0 0 0 0 0 0 0 0 0 0.25 0"/>
<feBlend mode="normal" in2="shape" result="effect1_innerShadow"/>
</filter>
<filter id="filter1_d" x="10.5" y="12.7607" width="123" height="152.701" filterUnits="userSpaceOnUse" color-interpolation-filters="sRGB">
<feFlood flood-opacity="0" result="BackgroundImageFix"/>
<feColorMatrix in="SourceAlpha" type="matrix" values="0 0 0 0 0 0 0 0 0 0 0 0 0 0 0 0 0 0 127 0"/>
<feOffset dx="2" dy="2"/>
<feGaussianBlur stdDeviation="0.5"/>
<feColorMatrix type="matrix" values="0 0 0 0 0 0 0 0 0 0 0 0 0 0 0 0 0 0 0.25 0"/>
<feBlend mode="normal" in2="BackgroundImageFix" result="effect1_dropShadow"/>
<feBlend mode="normal" in="SourceGraphic" in2="effect1_dropShadow" result="shape"/>
</filter>
<filter id="filter2_d" x="27.8203" y="55.5" width="92.4724" height="92.8413" filterUnits="userSpaceOnUse" color-interpolation-filters="sRGB">
<feFlood flood-opacity="0" result="BackgroundImageFix"/>
<feColorMatrix in="SourceAlpha" type="matrix" values="0 0 0 0 0 0 0 0 0 0 0 0 0 0 0 0 0 0 127 0"/>
<feOffset dx="3" dy="2"/>
<feGaussianBlur stdDeviation="1"/>
<feColorMatrix type="matrix" values="0 0 0 0 0 0 0 0 0 0 0 0 0 0 0 0 0 0 0.5 0"/>
<feBlend mode="normal" in2="BackgroundImageFix" result="effect1_dropShadow"/>
<feBlend mode="normal" in="SourceGraphic" in2="effect1_dropShadow" result="shape"/>
</filter>
<filter id="filter3_b" x="29.6689" y="84.4404" width="14.477" height="14.4636" filterUnits="userSpaceOnUse" color-interpolation-filters="sRGB">
<feFlood flood-opacity="0" result="BackgroundImageFix"/>
<feGaussianBlur in="BackgroundImage" stdDeviation="2"/>
<feComposite in2="SourceAlpha" operator="in" result="effect1_backgroundBlur"/>
<feBlend mode="normal" in="SourceGraphic" in2="effect1_backgroundBlur" result="shape"/>
</filter>
<filter id="filter4_d" x="25.2441" y="84.2148" width="23.3323" height="23.3005" filterUnits="userSpaceOnUse" color-interpolation-filters="sRGB">
<feFlood flood-opacity="0" result="BackgroundImageFix"/>
<feColorMatrix in="SourceAlpha" type="matrix" values="0 0 0 0 0 0 0 0 0 0 0 0 0 0 0 0 0 0 127 0"/>
<feOffset dy="4"/>
<feGaussianBlur stdDeviation="2"/>
<feColorMatrix type="matrix" values="0 0 0 0 0 0 0 0 0 0 0 0 0 0 0 0 0 0 0.25 0"/>
<feBlend mode="normal" in2="BackgroundImageFix" result="effect1_dropShadow"/>
<feBlend mode="normal" in="SourceGraphic" in2="effect1_dropShadow" result="shape"/>
</filter>
<filter id="filter5_d" x="23.96" y="87.4941" width="26.0021" height="17.224" filterUnits="userSpaceOnUse" color-interpolation-filters="sRGB">
<feFlood flood-opacity="0" result="BackgroundImageFix"/>
<feColorMatrix in="SourceAlpha" type="matrix" values="0 0 0 0 0 0 0 0 0 0 0 0 0 0 0 0 0 0 127 0"/>
<feOffset dy="4"/>
<feGaussianBlur stdDeviation="2"/>
<feColorMatrix type="matrix" values="0 0 0 0 0 0 0 0 0 0 0 0 0 0 0 0 0 0 0.25 0"/>
<feBlend mode="normal" in2="BackgroundImageFix" result="effect1_dropShadow"/>
<feBlend mode="normal" in="SourceGraphic" in2="effect1_dropShadow" result="shape"/>
</filter>
<filter id="filter6_d" x="25.2686" y="84.2549" width="23.2609" height="23.2293" filterUnits="userSpaceOnUse" color-interpolation-filters="sRGB">
<feFlood flood-opacity="0" result="BackgroundImageFix"/>
<feColorMatrix in="SourceAlpha" type="matrix" values="0 0 0 0 0 0 0 0 0 0 0 0 0 0 0 0 0 0 127 0"/>
<feOffset dy="4"/>
<feGaussianBlur stdDeviation="2"/>
<feColorMatrix type="matrix" values="0 0 0 0 0 0 0 0 0 0 0 0 0 0 0 0 0 0 0.25 0"/>
<feBlend mode="normal" in2="BackgroundImageFix" result="effect1_dropShadow"/>
<feBlend mode="normal" in="SourceGraphic" in2="effect1_dropShadow" result="shape"/>
</filter>
<linearGradient id="paint0_linear" x1="1" y1="33.1127" x2="69.7156" y2="172.387" gradientUnits="userSpaceOnUse">
<stop stop-color="#FFB0B0"/>
<stop offset="1" stop-color="#E61B3C" stop-opacity="0"/>
</linearGradient>
<linearGradient id="paint1_linear" x1="115" y1="143.901" x2="-14.738" y2="71.6743" gradientUnits="userSpaceOnUse">
<stop stop-opacity="0.62"/>
<stop offset="1" stop-color="#B4293F" stop-opacity="0"/>
</linearGradient>
<linearGradient id="paint2_linear" x1="11" y1="39.1978" x2="72.2444" y2="161.124" gradientUnits="userSpaceOnUse">
<stop stop-color="white"/>
<stop offset="1" stop-color="#A68A5C" stop-opacity="0"/>
</linearGradient>
<radialGradient id="paint3_radial" cx="0" cy="0" r="1" gradientUnits="userSpaceOnUse" gradientTransform="translate(93.6316 90.0645) rotate(143.291) scale(127.035 114.971)">
<stop stop-opacity="0.54"/>
<stop offset="1" stop-color="#B4293F" stop-opacity="0.28"/>
</radialGradient>
<linearGradient id="paint4_linear" x1="71" y1="56" x2="71" y2="144" gradientUnits="userSpaceOnUse">
<stop stop-color="white"/>
<stop offset="1" stop-color="white" stop-opacity="0"/>
</linearGradient>
<linearGradient id="paint5_linear" x1="36.9075" y1="88.4404" x2="38.6153" y2="94.9058" gradientUnits="userSpaceOnUse">
<stop stop-color="#61DBFB" stop-opacity="0.71"/>
<stop offset="1" stop-color="#0E3944"/>
</linearGradient>
<linearGradient id="paint6_linear" x1="30.7576" y1="85.7252" x2="43.0366" y2="98.0297" gradientUnits="userSpaceOnUse">
<stop stop-color="#8BD0E2"/>
<stop offset="1" stop-color="#1A8DAB" stop-opacity="0.72"/>
</linearGradient>
<linearGradient id="paint7_linear" x1="28.96" y1="92.1058" x2="44.9621" y2="92.1058" gradientUnits="userSpaceOnUse">
<stop stop-color="#61DBFB"/>
<stop offset="1" stop-color="white" stop-opacity="0"/>
</linearGradient>
<linearGradient id="paint8_linear" x1="43.0125" y1="85.7689" x2="30.8108" y2="97.996" gradientUnits="userSpaceOnUse">
<stop stop-color="#61DBFB"/>
<stop offset="1" stop-color="white" stop-opacity="0"/>
</linearGradient>
</defs>
</svg>
