<svg width="151" height="183" viewBox="0 0 151 183" fill="none" xmlns="http://www.w3.org/2000/svg">
<g opacity="0.79" filter="url(#filter0_d)">
<path d="M74.7581 5.5132L72.5 1.45132L70.2419 5.5132L64.722 11.5308L56.6931 16.5455L47.1588 21.5601L38.1264 25.0704L26.5848 28.0792L16.0469 30.085L12.0325 31.088H3V62.1789L4.50542 78.2258L6.01083 88.2551L7.51625 95.2757L12.0325 108.815L21.065 128.874L30.5993 142.413L40.6354 152.944L50.6715 161.469L61.7112 167.487L72.5 171.897L83.2888 167.487L94.3285 161.469L104.365 152.944L114.401 142.413L123.935 128.874L132.968 108.815L137.484 95.2757L138.989 88.2551L140.495 78.2258L142 62.1789V31.088H132.968L128.953 30.085L118.415 28.0792L106.874 25.0704L97.8412 21.5601L88.3069 16.5455L80.278 11.5308L74.7581 5.5132Z" fill="#A8CCD7" fill-opacity="0.91"/>
<path d="M74.7581 5.5132L72.5 1.45132L70.2419 5.5132L64.722 11.5308L56.6931 16.5455L47.1588 21.5601L38.1264 25.0704L26.5848 28.0792L16.0469 30.085L12.0325 31.088H3V62.1789L4.50542 78.2258L6.01083 88.2551L7.51625 95.2757L12.0325 108.815L21.065 128.874L30.5993 142.413L40.6354 152.944L50.6715 161.469L61.7112 167.487L72.5 171.897L83.2888 167.487L94.3285 161.469L104.365 152.944L114.401 142.413L123.935 128.874L132.968 108.815L137.484 95.2757L138.989 88.2551L140.495 78.2258L142 62.1789V31.088H132.968L128.953 30.085L118.415 28.0792L106.874 25.0704L97.8412 21.5601L88.3069 16.5455L80.278 11.5308L74.7581 5.5132Z" fill="url(#paint0_linear)"/>
<path d="M74.7581 5.5132L72.5 1.45132L70.2419 5.5132L64.722 11.5308L56.6931 16.5455L47.1588 21.5601L38.1264 25.0704L26.5848 28.0792L16.0469 30.085L12.0325 31.088H3V62.1789L4.50542 78.2258L6.01083 88.2551L7.51625 95.2757L12.0325 108.815L21.065 128.874L30.5993 142.413L40.6354 152.944L50.6715 161.469L61.7112 167.487L72.5 171.897L83.2888 167.487L94.3285 161.469L104.365 152.944L114.401 142.413L123.935 128.874L132.968 108.815L137.484 95.2757L138.989 88.2551L140.495 78.2258L142 62.1789V31.088H132.968L128.953 30.085L118.415 28.0792L106.874 25.0704L97.8412 21.5601L88.3069 16.5455L80.278 11.5308L74.7581 5.5132Z" fill="url(#paint1_radial)"/>
<path d="M74.7581 5.5132L72.5 1.45132L70.2419 5.5132L64.722 11.5308L56.6931 16.5455L47.1588 21.5601L38.1264 25.0704L26.5848 28.0792L16.0469 30.085L12.0325 31.088H3V62.1789L4.50542 78.2258L6.01083 88.2551L7.51625 95.2757L12.0325 108.815L21.065 128.874L30.5993 142.413L40.6354 152.944L50.6715 161.469L61.7112 167.487L72.5 171.897L83.2888 167.487L94.3285 161.469L104.365 152.944L114.401 142.413L123.935 128.874L132.968 108.815L137.484 95.2757L138.989 88.2551L140.495 78.2258L142 62.1789V31.088H132.968L128.953 30.085L118.415 28.0792L106.874 25.0704L97.8412 21.5601L88.3069 16.5455L80.278 11.5308L74.7581 5.5132Z" fill="url(#paint2_radial)" fill-opacity="0.74"/>
</g>
<g filter="url(#filter1_d)">
<path d="M74.4332 17.827L72.5 14.3827L70.5668 17.827L65.8412 22.9296L58.9675 27.1818L50.8051 31.434L43.0722 34.4106L33.1913 36.9619L24.1697 38.6628L20.7329 39.5132H13V65.8768L14.2888 79.4839L15.5776 87.9883L16.8664 93.9414L20.7329 105.422L28.4657 122.431L36.6282 133.912L45.2202 142.842L53.8123 150.07L63.2635 155.173L72.5 158.913L81.7365 155.173L91.1877 150.07L99.7798 142.842L108.372 133.912L116.534 122.431L124.267 105.422L128.134 93.9414L129.422 87.9883L130.711 79.4839L132 65.8768V39.5132H124.267L120.83 38.6628L111.809 36.9619L101.928 34.4106L94.1949 31.434L86.0325 27.1818L79.1588 22.9296L74.4332 17.827Z" fill="#A8CCD7"/>
<path d="M74.4332 17.827L72.5 14.3827L70.5668 17.827L65.8412 22.9296L58.9675 27.1818L50.8051 31.434L43.0722 34.4106L33.1913 36.9619L24.1697 38.6628L20.7329 39.5132H13V65.8768L14.2888 79.4839L15.5776 87.9883L16.8664 93.9414L20.7329 105.422L28.4657 122.431L36.6282 133.912L45.2202 142.842L53.8123 150.07L63.2635 155.173L72.5 158.913L81.7365 155.173L91.1877 150.07L99.7798 142.842L108.372 133.912L116.534 122.431L124.267 105.422L128.134 93.9414L129.422 87.9883L130.711 79.4839L132 65.8768V39.5132H124.267L120.83 38.6628L111.809 36.9619L101.928 34.4106L94.1949 31.434L86.0325 27.1818L79.1588 22.9296L74.4332 17.827Z" fill="url(#paint3_linear)"/>
<path d="M74.4332 17.827L72.5 14.3827L70.5668 17.827L65.8412 22.9296L58.9675 27.1818L50.8051 31.434L43.0722 34.4106L33.1913 36.9619L24.1697 38.6628L20.7329 39.5132H13V65.8768L14.2888 79.4839L15.5776 87.9883L16.8664 93.9414L20.7329 105.422L28.4657 122.431L36.6282 133.912L45.2202 142.842L53.8123 150.07L63.2635 155.173L72.5 158.913L81.7365 155.173L91.1877 150.07L99.7798 142.842L108.372 133.912L116.534 122.431L124.267 105.422L128.134 93.9414L129.422 87.9883L130.711 79.4839L132 65.8768V39.5132H124.267L120.83 38.6628L111.809 36.9619L101.928 34.4106L94.1949 31.434L86.0325 27.1818L79.1588 22.9296L74.4332 17.827Z" fill="url(#paint4_radial)"/>
<path d="M74.4332 17.827L72.5 14.3827L70.5668 17.827L65.8412 22.9296L58.9675 27.1818L50.8051 31.434L43.0722 34.4106L33.1913 36.9619L24.1697 38.6628L20.7329 39.5132H13V65.8768L14.2888 79.4839L15.5776 87.9883L16.8664 93.9414L20.7329 105.422L28.4657 122.431L36.6282 133.912L45.2202 142.842L53.8123 150.07L63.2635 155.173L72.5 158.913L81.7365 155.173L91.1877 150.07L99.7798 142.842L108.372 133.912L116.534 122.431L124.267 105.422L128.134 93.9414L129.422 87.9883L130.711 79.4839L132 65.8768V39.5132H124.267L120.83 38.6628L111.809 36.9619L101.928 34.4106L94.1949 31.434L86.0325 27.1818L79.1588 22.9296L74.4332 17.827Z" fill="url(#paint5_radial)" fill-opacity="0.65"/>
<path d="M72.2852 14L74.4332 17.827L79.1588 22.9296L86.0325 27.1818L94.1949 31.434L101.928 34.4106L111.809 36.9619L120.83 38.6628L124.267 39.5132H132V65.8768L130.711 79.4839L129.422 87.9883L128.134 93.9414L124.267 105.422L116.534 122.431L108.372 133.912L99.7798 142.842L91.1877 150.07L81.7365 155.173L72.2852 159M72.7148 14L70.5668 17.827L65.8412 22.9296L58.9675 27.1818L50.8051 31.434L43.0722 34.4106L33.1913 36.9619L24.1697 38.6628L20.7329 39.5132H13V65.8768L14.2888 79.4839L15.5776 87.9883L16.8664 93.9414L20.7329 105.422L28.4657 122.431L36.6282 133.912L45.2202 142.842L53.8123 150.07L63.2635 155.173L72.7148 159" stroke="#A68A5C"/>
<path d="M72.2852 14L74.4332 17.827L79.1588 22.9296L86.0325 27.1818L94.1949 31.434L101.928 34.4106L111.809 36.9619L120.83 38.6628L124.267 39.5132H132V65.8768L130.711 79.4839L129.422 87.9883L128.134 93.9414L124.267 105.422L116.534 122.431L108.372 133.912L99.7798 142.842L91.1877 150.07L81.7365 155.173L72.2852 159M72.7148 14L70.5668 17.827L65.8412 22.9296L58.9675 27.1818L50.8051 31.434L43.0722 34.4106L33.1913 36.9619L24.1697 38.6628L20.7329 39.5132H13V65.8768L14.2888 79.4839L15.5776 87.9883L16.8664 93.9414L20.7329 105.422L28.4657 122.431L36.6282 133.912L45.2202 142.842L53.8123 150.07L63.2635 155.173L72.7148 159" stroke="url(#paint6_linear)"/>
</g>
<g filter="url(#filter2_d)">
<path fill-rule="evenodd" clip-rule="evenodd" d="M115 54L104.328 64.3488V83.1837H115L104.328 93.1186V99.9488L104.233 106.779V110.712L103.856 114.023L102.911 117.749L101.967 120.302L99.8889 123.544L97.6222 126.028L95.7333 128.098L93.2778 130.167L90.2556 132.03L87.4222 133.479L84.7778 134.307L81.7556 134.928L77.6 135.549H75.1444L71.7444 135.342L69.4778 134.928L67.2111 134.514L63.4333 133.479L54.7444 143L60.7889 132.444L57.3889 131.409L54.3667 129.547L51.7222 127.477L48.3222 123.544L46.4333 120.302L44.5444 116.093L43.4111 112.574L42.6556 110.508L42.0889 109.056L40.9556 108.614L30 104.295H54.3667V108.021L54.7444 111.333L55.6889 114.437L57.3889 117.128L59.0889 118.561L61.1667 119.612L64.1889 120.302H67.5889L79.3 95.3953H47.1889L69.6667 64.3488L47.1889 54H115ZM88.3667 64.3488L75.1444 83.1837H88.3667V64.3488ZM86.6667 114.023L85.5333 116.093L83.4556 118.37L80.8111 119.612L78.1667 120.302H75.1444L88.3667 106.986L87.9889 111.333L86.6667 114.023Z" fill="#B4293F"/>
<path fill-rule="evenodd" clip-rule="evenodd" d="M115 54L104.328 64.3488V83.1837H115L104.328 93.1186V99.9488L104.233 106.779V110.712L103.856 114.023L102.911 117.749L101.967 120.302L99.8889 123.544L97.6222 126.028L95.7333 128.098L93.2778 130.167L90.2556 132.03L87.4222 133.479L84.7778 134.307L81.7556 134.928L77.6 135.549H75.1444L71.7444 135.342L69.4778 134.928L67.2111 134.514L63.4333 133.479L54.7444 143L60.7889 132.444L57.3889 131.409L54.3667 129.547L51.7222 127.477L48.3222 123.544L46.4333 120.302L44.5444 116.093L43.4111 112.574L42.6556 110.508L42.0889 109.056L40.9556 108.614L30 104.295H54.3667V108.021L54.7444 111.333L55.6889 114.437L57.3889 117.128L59.0889 118.561L61.1667 119.612L64.1889 120.302H67.5889L79.3 95.3953H47.1889L69.6667 64.3488L47.1889 54H115ZM88.3667 64.3488L75.1444 83.1837H88.3667V64.3488ZM86.6667 114.023L85.5333 116.093L83.4556 118.37L80.8111 119.612L78.1667 120.302H75.1444L88.3667 106.986L87.9889 111.333L86.6667 114.023Z" fill="url(#paint7_radial)"/>
<path d="M88.3667 83.1837H75.1444L88.3667 64.3488V83.1837ZM88.3667 83.1837H104.328M104.328 83.1837H115L104.328 93.1186M104.328 83.1837V64.3488L115 54H47.1889L69.6667 64.3488L47.1889 95.3953H79.3L67.5889 120.302M67.5889 120.302L60.7889 132.444M67.5889 120.302H64.1889L61.1667 119.612L59.0889 118.561L57.3889 117.128L55.6889 114.437L54.7444 111.333L54.3667 108.021V104.295H30L40.9556 108.614L42.0889 109.056L42.6556 110.508L43.4111 112.574L44.5444 116.093L46.4333 120.302L48.3222 123.544L51.7222 127.477L54.3667 129.547L57.3889 131.409L60.7889 132.444M88.3667 106.986L75.1444 120.302M88.3667 106.986L104.328 93.1186M88.3667 106.986L87.9889 111.333L86.6667 114.023L85.5333 116.093L83.4556 118.37L80.8111 119.612L78.1667 120.302H75.1444M75.1444 120.302L63.4333 133.479M104.328 93.1186V99.9488L104.233 106.779V110.712L103.856 114.023L102.911 117.749L101.967 120.302L99.8889 123.544L97.6222 126.028L95.7333 128.098L93.2778 130.167L90.2556 132.03L87.4222 133.479L84.7778 134.307L81.7556 134.928L77.6 135.549H75.1444L71.7444 135.342L69.4778 134.928L67.2111 134.514L63.4333 133.479M63.4333 133.479L54.7444 143L60.7889 132.444" stroke="#AB9267"/>
<path d="M88.3667 83.1837H75.1444L88.3667 64.3488V83.1837ZM88.3667 83.1837H104.328M104.328 83.1837H115L104.328 93.1186M104.328 83.1837V64.3488L115 54H47.1889L69.6667 64.3488L47.1889 95.3953H79.3L67.5889 120.302M67.5889 120.302L60.7889 132.444M67.5889 120.302H64.1889L61.1667 119.612L59.0889 118.561L57.3889 117.128L55.6889 114.437L54.7444 111.333L54.3667 108.021V104.295H30L40.9556 108.614L42.0889 109.056L42.6556 110.508L43.4111 112.574L44.5444 116.093L46.4333 120.302L48.3222 123.544L51.7222 127.477L54.3667 129.547L57.3889 131.409L60.7889 132.444M88.3667 106.986L75.1444 120.302M88.3667 106.986L104.328 93.1186M88.3667 106.986L87.9889 111.333L86.6667 114.023L85.5333 116.093L83.4556 118.37L80.8111 119.612L78.1667 120.302H75.1444M75.1444 120.302L63.4333 133.479M104.328 93.1186V99.9488L104.233 106.779V110.712L103.856 114.023L102.911 117.749L101.967 120.302L99.8889 123.544L97.6222 126.028L95.7333 128.098L93.2778 130.167L90.2556 132.03L87.4222 133.479L84.7778 134.307L81.7556 134.928L77.6 135.549H75.1444L71.7444 135.342L69.4778 134.928L67.2111 134.514L63.4333 133.479M63.4333 133.479L54.7444 143L60.7889 132.444" stroke="url(#paint8_linear)"/>
</g>
<g opacity="0.85">
<g filter="url(#filter3_b)">
<ellipse cx="38.9525" cy="92.0405" rx="3.23179" ry="3.22508" fill="#61DBFB" fill-opacity="0.63"/>
<ellipse cx="38.9525" cy="92.0405" rx="3.23179" ry="3.22508" fill="url(#paint9_linear)"/>
</g>
<g filter="url(#filter4_d)">
<path d="M45.4486 98.7122C45.9248 98.237 46.1128 97.5835 46.1069 96.8813C46.1011 96.1815 45.9046 95.3929 45.5652 94.5718C44.8856 92.9274 43.5936 91.0571 41.8632 89.3303C40.1329 87.6035 38.2587 86.3142 36.6108 85.636C35.788 85.2974 34.9978 85.1012 34.2966 85.0954C33.5929 85.0896 32.938 85.2772 32.4619 85.7523C31.9857 86.2275 31.7978 86.881 31.8036 87.5832C31.8094 88.283 32.0059 89.0716 32.3453 89.8927C33.0249 91.5371 34.3169 93.4075 36.0473 95.1342C37.7776 96.861 39.6519 98.1503 41.2997 98.8285C42.1225 99.1672 42.9127 99.3633 43.6139 99.3691C44.3176 99.3749 44.9725 99.1873 45.4486 98.7122Z" stroke="#61DBFB" stroke-opacity="0.47"/>
<path d="M45.4486 98.7122C45.9248 98.237 46.1128 97.5835 46.1069 96.8813C46.1011 96.1815 45.9046 95.3929 45.5652 94.5718C44.8856 92.9274 43.5936 91.0571 41.8632 89.3303C40.1329 87.6035 38.2587 86.3142 36.6108 85.636C35.788 85.2974 34.9978 85.1012 34.2966 85.0954C33.5929 85.0896 32.938 85.2772 32.4619 85.7523C31.9857 86.2275 31.7978 86.881 31.8036 87.5832C31.8094 88.283 32.0059 89.0716 32.3453 89.8927C33.0249 91.5371 34.3169 93.4075 36.0473 95.1342C37.7776 96.861 39.6519 98.1503 41.2997 98.8285C42.1225 99.1672 42.9127 99.3633 43.6139 99.3691C44.3176 99.3749 44.9725 99.1873 45.4486 98.7122Z" stroke="url(#paint10_linear)"/>
</g>
<g filter="url(#filter5_d)">
<path d="M47.4903 92.4726C47.4903 91.1588 46.3344 90.1349 44.8575 89.4681C43.3342 88.7805 41.2649 88.3681 39.0059 88.3681C36.7469 88.3681 34.6776 88.7805 33.1543 89.4681C31.6774 90.1349 30.5215 91.1588 30.5215 92.4726C30.5215 93.7865 31.6774 94.8104 33.1543 95.4771C34.6776 96.1648 36.7469 96.5771 39.0059 96.5771C41.2649 96.5771 43.3342 96.1648 44.8575 95.4771C46.3344 94.8104 47.4903 93.7865 47.4903 92.4726Z" stroke="#61DBFB" stroke-opacity="0.47"/>
<path d="M47.4903 92.4726C47.4903 91.1588 46.3344 90.1349 44.8575 89.4681C43.3342 88.7805 41.2649 88.3681 39.0059 88.3681C36.7469 88.3681 34.6776 88.7805 33.1543 89.4681C31.6774 90.1349 30.5215 91.1588 30.5215 92.4726C30.5215 93.7865 31.6774 94.8104 33.1543 95.4771C34.6776 96.1648 36.7469 96.5771 39.0059 96.5771C41.2649 96.5771 43.3342 96.1648 44.8575 95.4771C46.3344 94.8104 47.4903 93.7865 47.4903 92.4726Z" stroke="url(#paint11_linear)"/>
</g>
<g filter="url(#filter6_d)">
<path d="M32.4896 98.679C32.965 99.1533 33.6178 99.3425 34.3197 99.3389C35.0191 99.3353 35.8067 99.1422 36.6263 98.807C38.2675 98.1358 40.1325 96.8559 41.8524 95.1395C43.5724 93.4232 44.8549 91.5621 45.5275 89.9242C45.8634 89.1063 46.0569 88.3204 46.0605 87.6225C46.0641 86.922 45.8745 86.2705 45.3992 85.7962C44.9239 85.3218 44.2711 85.1326 43.5691 85.1362C42.8697 85.1398 42.0822 85.333 41.2626 85.6681C39.6213 86.3393 37.7564 87.6192 36.0364 89.3356C34.3165 91.052 33.0339 92.913 32.3613 94.5509C32.0255 95.3688 31.8319 96.1547 31.8283 96.8527C31.8247 97.5532 32.0143 98.2046 32.4896 98.679Z" stroke="#61DBFB" stroke-opacity="0.47"/>
<path d="M32.4896 98.679C32.965 99.1533 33.6178 99.3425 34.3197 99.3389C35.0191 99.3353 35.8067 99.1422 36.6263 98.807C38.2675 98.1358 40.1325 96.8559 41.8524 95.1395C43.5724 93.4232 44.8549 91.5621 45.5275 89.9242C45.8634 89.1063 46.0569 88.3204 46.0605 87.6225C46.0641 86.922 45.8745 86.2705 45.3992 85.7962C44.9239 85.3218 44.2711 85.1326 43.5691 85.1362C42.8697 85.1398 42.0822 85.333 41.2626 85.6681C39.6213 86.3393 37.7564 87.6192 36.0364 89.3356C34.3165 91.052 33.0339 92.913 32.3613 94.5509C32.0255 95.3688 31.8319 96.1547 31.8283 96.8527C31.8247 97.5532 32.0143 98.2046 32.4896 98.679Z" stroke="url(#paint12_linear)"/>
</g>
</g>
<defs>
<filter id="filter0_d" x="0" y="0.451172" width="151" height="182.446" filterUnits="userSpaceOnUse" color-interpolation-filters="sRGB">
<feFlood flood-opacity="0" result="BackgroundImageFix"/>
<feColorMatrix in="SourceAlpha" type="matrix" values="0 0 0 0 0 0 0 0 0 0 0 0 0 0 0 0 0 0 127 0"/>
<feOffset dx="3" dy="5"/>
<feGaussianBlur stdDeviation="3"/>
<feColorMatrix type="matrix" values="0 0 0 0 0 0 0 0 0 0 0 0 0 0 0 0 0 0 0.25 0"/>
<feBlend mode="normal" in2="BackgroundImageFix" result="effect1_dropShadow"/>
<feBlend mode="normal" in="SourceGraphic" in2="effect1_dropShadow" result="shape"/>
</filter>
<filter id="filter1_d" x="2.5" y="5.75488" width="146" height="171.708" filterUnits="userSpaceOnUse" color-interpolation-filters="sRGB">
<feFlood flood-opacity="0" result="BackgroundImageFix"/>
<feColorMatrix in="SourceAlpha" type="matrix" values="0 0 0 0 0 0 0 0 0 0 0 0 0 0 0 0 0 0 127 0"/>
<feOffset dx="3" dy="5"/>
<feGaussianBlur stdDeviation="6.5"/>
<feColorMatrix type="matrix" values="0 0 0 0 0 0 0 0 0 0 0 0 0 0 0 0 0 0 0.25 0"/>
<feBlend mode="normal" in2="BackgroundImageFix" result="effect1_dropShadow"/>
<feBlend mode="normal" in="SourceGraphic" in2="effect1_dropShadow" result="shape"/>
</filter>
<filter id="filter2_d" x="29.8164" y="52.5" width="90.4543" height="93.837" filterUnits="userSpaceOnUse" color-interpolation-filters="sRGB">
<feFlood flood-opacity="0" result="BackgroundImageFix"/>
<feColorMatrix in="SourceAlpha" type="matrix" values="0 0 0 0 0 0 0 0 0 0 0 0 0 0 0 0 0 0 127 0"/>
<feOffset dx="2" dy="1"/>
<feGaussianBlur stdDeviation="1"/>
<feColorMatrix type="matrix" values="0 0 0 0 0 0 0 0 0 0 0 0 0 0 0 0 0 0 0.5 0"/>
<feBlend mode="normal" in2="BackgroundImageFix" result="effect1_dropShadow"/>
<feBlend mode="normal" in="SourceGraphic" in2="effect1_dropShadow" result="shape"/>
</filter>
<filter id="filter3_b" x="31.7207" y="84.8154" width="14.4636" height="14.4502" filterUnits="userSpaceOnUse" color-interpolation-filters="sRGB">
<feFlood flood-opacity="0" result="BackgroundImageFix"/>
<feGaussianBlur in="BackgroundImage" stdDeviation="2"/>
<feComposite in2="SourceAlpha" operator="in" result="effect1_backgroundBlur"/>
<feBlend mode="normal" in="SourceGraphic" in2="effect1_backgroundBlur" result="shape"/>
</filter>
<filter id="filter4_d" x="27.3027" y="84.5957" width="23.3046" height="23.2729" filterUnits="userSpaceOnUse" color-interpolation-filters="sRGB">
<feFlood flood-opacity="0" result="BackgroundImageFix"/>
<feColorMatrix in="SourceAlpha" type="matrix" values="0 0 0 0 0 0 0 0 0 0 0 0 0 0 0 0 0 0 127 0"/>
<feOffset dy="4"/>
<feGaussianBlur stdDeviation="2"/>
<feColorMatrix type="matrix" values="0 0 0 0 0 0 0 0 0 0 0 0 0 0 0 0 0 0 0.25 0"/>
<feBlend mode="normal" in2="BackgroundImageFix" result="effect1_dropShadow"/>
<feBlend mode="normal" in="SourceGraphic" in2="effect1_dropShadow" result="shape"/>
</filter>
<filter id="filter5_d" x="26.0215" y="87.8682" width="25.9688" height="17.209" filterUnits="userSpaceOnUse" color-interpolation-filters="sRGB">
<feFlood flood-opacity="0" result="BackgroundImageFix"/>
<feColorMatrix in="SourceAlpha" type="matrix" values="0 0 0 0 0 0 0 0 0 0 0 0 0 0 0 0 0 0 127 0"/>
<feOffset dy="4"/>
<feGaussianBlur stdDeviation="2"/>
<feColorMatrix type="matrix" values="0 0 0 0 0 0 0 0 0 0 0 0 0 0 0 0 0 0 0.25 0"/>
<feBlend mode="normal" in2="BackgroundImageFix" result="effect1_dropShadow"/>
<feBlend mode="normal" in="SourceGraphic" in2="effect1_dropShadow" result="shape"/>
</filter>
<filter id="filter6_d" x="27.3281" y="84.6367" width="23.2333" height="23.2017" filterUnits="userSpaceOnUse" color-interpolation-filters="sRGB">
<feFlood flood-opacity="0" result="BackgroundImageFix"/>
<feColorMatrix in="SourceAlpha" type="matrix" values="0 0 0 0 0 0 0 0 0 0 0 0 0 0 0 0 0 0 127 0"/>
<feOffset dy="4"/>
<feGaussianBlur stdDeviation="2"/>
<feColorMatrix type="matrix" values="0 0 0 0 0 0 0 0 0 0 0 0 0 0 0 0 0 0 0.25 0"/>
<feBlend mode="normal" in2="BackgroundImageFix" result="effect1_dropShadow"/>
<feBlend mode="normal" in="SourceGraphic" in2="effect1_dropShadow" result="shape"/>
</filter>
<linearGradient id="paint0_linear" x1="-46.1769" y1="14.5396" x2="165.482" y2="172.639" gradientUnits="userSpaceOnUse">
<stop stop-color="white"/>
<stop offset="1" stop-color="white" stop-opacity="0"/>
</linearGradient>
<radialGradient id="paint1_radial" cx="0" cy="0" r="1" gradientUnits="userSpaceOnUse" gradientTransform="translate(-20.083 -5.51906) rotate(44.2698) scale(142.96 116.127)">
<stop stop-color="white"/>
<stop offset="1" stop-color="white" stop-opacity="0"/>
</radialGradient>
<radialGradient id="paint2_radial" cx="0" cy="0" r="1" gradientUnits="userSpaceOnUse" gradientTransform="translate(121.928 160.466) rotate(-137.725) scale(187.857 152.59)">
<stop/>
<stop offset="1" stop-color="white" stop-opacity="0"/>
</radialGradient>
<linearGradient id="paint3_linear" x1="-64.5" y1="-37.5" x2="72" y2="94" gradientUnits="userSpaceOnUse">
<stop stop-color="white"/>
<stop offset="1" stop-color="white" stop-opacity="0"/>
</linearGradient>
<radialGradient id="paint4_radial" cx="0" cy="0" r="1" gradientUnits="userSpaceOnUse" gradientTransform="translate(35.5 63) rotate(42.117) scale(49.2062 40.383)">
<stop stop-color="white"/>
<stop offset="1" stop-color="white" stop-opacity="0"/>
</radialGradient>
<radialGradient id="paint5_radial" cx="0" cy="0" r="1" gradientUnits="userSpaceOnUse" gradientTransform="translate(101 135.5) rotate(-154.75) scale(155.895 127.941)">
<stop/>
<stop offset="1" stop-color="white" stop-opacity="0"/>
</radialGradient>
<linearGradient id="paint6_linear" x1="13" y1="39.4945" x2="71.6259" y2="159.427" gradientUnits="userSpaceOnUse">
<stop stop-color="white"/>
<stop offset="1" stop-color="#A68A5C" stop-opacity="0"/>
</linearGradient>
<radialGradient id="paint7_radial" cx="0" cy="0" r="1" gradientUnits="userSpaceOnUse" gradientTransform="translate(94.8684 88.4516) rotate(142.658) scale(126.61 115.312)">
<stop stop-opacity="0.54"/>
<stop offset="1" stop-color="#B4293F" stop-opacity="0.28"/>
</radialGradient>
<linearGradient id="paint8_linear" x1="72.5" y1="54" x2="72.5" y2="143" gradientUnits="userSpaceOnUse">
<stop stop-color="white"/>
<stop offset="1" stop-color="white" stop-opacity="0"/>
</linearGradient>
<linearGradient id="paint9_linear" x1="38.9525" y1="88.8154" x2="40.6568" y2="95.2673" gradientUnits="userSpaceOnUse">
<stop stop-color="#61DBFB" stop-opacity="0.71"/>
<stop offset="1" stop-color="#0E3944"/>
</linearGradient>
<linearGradient id="paint10_linear" x1="32.8158" y1="86.1055" x2="45.0692" y2="98.3844" gradientUnits="userSpaceOnUse">
<stop stop-color="#8BD0E2"/>
<stop offset="1" stop-color="#1A8DAB" stop-opacity="0.72"/>
</linearGradient>
<linearGradient id="paint11_linear" x1="31.0215" y1="92.4726" x2="46.9903" y2="92.4726" gradientUnits="userSpaceOnUse">
<stop stop-color="#61DBFB"/>
<stop offset="1" stop-color="white" stop-opacity="0"/>
</linearGradient>
<linearGradient id="paint12_linear" x1="45.0453" y1="86.1494" x2="32.8689" y2="98.351" gradientUnits="userSpaceOnUse">
<stop stop-color="#61DBFB"/>
<stop offset="1" stop-color="white" stop-opacity="0"/>
</linearGradient>
</defs>
</svg>
