<svg width="240" height="272" viewBox="0 0 240 272" fill="none" xmlns="http://www.w3.org/2000/svg">
<g filter="url(#filter0_ddd)">
<path d="M120.5 53.5L118.25 49.45L116 53.5L110.5 59.5L102.5 64.5L93 69.5L84 73L72.5 76L62 78L58 79H49V110L50.5 126L52 136L53.5 143L58 156.5L67 176.5L76.5 190L86.5 200.5L96.5 209L107.5 215L118.25 219.398L129 215L140 209L150 200.5L160 190L169.5 176.5L178.5 156.5L183 143L184.5 136L186 126L187.5 110V79H178.5L174.5 78L164 76L152.5 73L143.5 69.5L134 64.5L126 59.5L120.5 53.5Z" fill="url(#paint0_radial)"/>
<path d="M120.5 53.5L118.25 49.45L116 53.5L110.5 59.5L102.5 64.5L93 69.5L84 73L72.5 76L62 78L58 79H49V110L50.5 126L52 136L53.5 143L58 156.5L67 176.5L76.5 190L86.5 200.5L96.5 209L107.5 215L118.25 219.398L129 215L140 209L150 200.5L160 190L169.5 176.5L178.5 156.5L183 143L184.5 136L186 126L187.5 110V79H178.5L174.5 78L164 76L152.5 73L143.5 69.5L134 64.5L126 59.5L120.5 53.5Z" fill="url(#paint1_radial)"/>
<path d="M118 49L120.5 53.5L126 59.5L134 64.5L143.5 69.5L152.5 73L164 76L174.5 78L178.5 79H187.5V110L186 126L184.5 136L183 143L178.5 156.5L169.5 176.5L160 190L150 200.5L140 209L129 215L118 219.5M118.5 49L116 53.5L110.5 59.5L102.5 64.5L93 69.5L84 73L72.5 76L62 78L58 79H49V110L50.5 126L52 136L53.5 143L58 156.5L67 176.5L76.5 190L86.5 200.5L96.5 209L107.5 215L118.5 219.5" stroke="black" stroke-opacity="0.45" stroke-width="0.5"/>
</g>
<g filter="url(#filter1_d)">
<path d="M120.433 65.827L118.5 62.3827L116.567 65.827L111.841 70.9296L104.968 75.1818L96.8051 79.434L89.0722 82.4106L79.1913 84.9619L70.1697 86.6628L66.7329 87.5132H59V113.877L60.2888 127.484L61.5776 135.988L62.8664 141.941L66.7329 153.422L74.4657 170.431L82.6282 181.912L91.2202 190.842L99.8123 198.07L109.264 203.173L118.5 206.913L127.736 203.173L137.188 198.07L145.78 190.842L154.372 181.912L162.534 170.431L170.267 153.422L174.134 141.941L175.422 135.988L176.711 127.484L178 113.877V87.5132H170.267L166.83 86.6628L157.809 84.9619L147.928 82.4106L140.195 79.434L132.032 75.1818L125.159 70.9296L120.433 65.827Z" fill="url(#paint2_radial)"/>
<path d="M120.433 65.827L118.5 62.3827L116.567 65.827L111.841 70.9296L104.968 75.1818L96.8051 79.434L89.0722 82.4106L79.1913 84.9619L70.1697 86.6628L66.7329 87.5132H59V113.877L60.2888 127.484L61.5776 135.988L62.8664 141.941L66.7329 153.422L74.4657 170.431L82.6282 181.912L91.2202 190.842L99.8123 198.07L109.264 203.173L118.5 206.913L127.736 203.173L137.188 198.07L145.78 190.842L154.372 181.912L162.534 170.431L170.267 153.422L174.134 141.941L175.422 135.988L176.711 127.484L178 113.877V87.5132H170.267L166.83 86.6628L157.809 84.9619L147.928 82.4106L140.195 79.434L132.032 75.1818L125.159 70.9296L120.433 65.827Z" fill="url(#paint3_radial)"/>
<path d="M118.285 62L120.433 65.827L125.159 70.9296L132.032 75.1818L140.195 79.434L147.928 82.4106L157.809 84.9619L166.83 86.6628L170.267 87.5132H178V113.877L176.711 127.484L175.422 135.988L174.134 141.941L170.267 153.422L162.534 170.431L154.372 181.912L145.78 190.842L137.188 198.07L127.736 203.173L118.285 207M118.715 62L116.567 65.827L111.841 70.9296L104.968 75.1818L96.8051 79.434L89.0722 82.4106L79.1913 84.9619L70.1697 86.6628L66.7329 87.5132H59V113.877L60.2888 127.484L61.5776 135.988L62.8664 141.941L66.7329 153.422L74.4657 170.431L82.6282 181.912L91.2202 190.842L99.8123 198.07L109.264 203.173L118.715 207" stroke="#A68A5C" stroke-width="2"/>
<path d="M118.285 62L120.433 65.827L125.159 70.9296L132.032 75.1818L140.195 79.434L147.928 82.4106L157.809 84.9619L166.83 86.6628L170.267 87.5132H178V113.877L176.711 127.484L175.422 135.988L174.134 141.941L170.267 153.422L162.534 170.431L154.372 181.912L145.78 190.842L137.188 198.07L127.736 203.173L118.285 207M118.715 62L116.567 65.827L111.841 70.9296L104.968 75.1818L96.8051 79.434L89.0722 82.4106L79.1913 84.9619L70.1697 86.6628L66.7329 87.5132H59V113.877L60.2888 127.484L61.5776 135.988L62.8664 141.941L66.7329 153.422L74.4657 170.431L82.6282 181.912L91.2202 190.842L99.8123 198.07L109.264 203.173L118.715 207" stroke="url(#paint4_linear)" stroke-width="2"/>
</g>
<g filter="url(#filter2_b)">
<ellipse cx="84.7047" cy="139.497" rx="3.23688" ry="3.23016" fill="#61DBFB" fill-opacity="0.63"/>
<ellipse cx="84.7047" cy="139.497" rx="3.23688" ry="3.23016" fill="url(#paint5_linear)"/>
</g>
<g filter="url(#filter3_d)">
<path d="M91.2103 146.179C91.687 145.703 91.8752 145.049 91.8694 144.345C91.8635 143.645 91.6667 142.855 91.3269 142.033C90.6463 140.386 89.3523 138.513 87.6192 136.783C85.8862 135.054 84.0091 133.762 82.3588 133.083C81.5348 132.744 80.7434 132.548 80.0412 132.542C79.3365 132.536 78.6809 132.724 78.2042 133.2C77.7275 133.675 77.5393 134.33 77.5451 135.033C77.5509 135.733 77.7477 136.523 78.0876 137.346C78.7682 138.992 80.0622 140.866 81.7952 142.595C83.5282 144.324 85.4053 145.616 87.0556 146.295C87.8797 146.634 88.671 146.831 89.3733 146.836C90.0779 146.842 90.7336 146.654 91.2103 146.179Z" stroke="#61DBFB" stroke-opacity="0.47"/>
<path d="M91.2103 146.179C91.687 145.703 91.8752 145.049 91.8694 144.345C91.8635 143.645 91.6667 142.855 91.3269 142.033C90.6463 140.386 89.3523 138.513 87.6192 136.783C85.8862 135.054 84.0091 133.762 82.3588 133.083C81.5348 132.744 80.7434 132.548 80.0412 132.542C79.3365 132.536 78.6809 132.724 78.2042 133.2C77.7275 133.675 77.5393 134.33 77.5451 135.033C77.5509 135.733 77.7477 136.523 78.0876 137.346C78.7682 138.992 80.0622 140.866 81.7952 142.595C83.5282 144.324 85.4053 145.616 87.0556 146.295C87.8797 146.634 88.671 146.831 89.3733 146.836C90.0779 146.842 90.7336 146.654 91.2103 146.179Z" stroke="url(#paint6_linear)"/>
</g>
<g filter="url(#filter4_d)">
<path d="M93.2557 139.931C93.2557 138.615 92.0984 137.59 90.6192 136.922C89.0936 136.234 87.0212 135.821 84.7587 135.821C82.4962 135.821 80.4238 136.234 78.8983 136.922C77.4191 137.59 76.2617 138.615 76.2617 139.931C76.2617 141.246 77.4191 142.272 78.8983 142.939C80.4238 143.628 82.4962 144.041 84.7587 144.041C87.0212 144.041 89.0936 143.628 90.6192 142.939C92.0984 142.272 93.2557 141.246 93.2557 139.931Z" stroke="#61DBFB" stroke-opacity="0.47"/>
<path d="M93.2557 139.931C93.2557 138.615 92.0984 137.59 90.6192 136.922C89.0936 136.234 87.0212 135.821 84.7587 135.821C82.4962 135.821 80.4238 136.234 78.8983 136.922C77.4191 137.59 76.2617 138.615 76.2617 139.931C76.2617 141.246 77.4191 142.272 78.8983 142.939C80.4238 143.628 82.4962 144.041 84.7587 144.041C87.0212 144.041 89.0936 143.628 90.6192 142.939C92.0984 142.272 93.2557 141.246 93.2557 139.931Z" stroke="url(#paint7_linear)"/>
</g>
<g filter="url(#filter5_d)">
<path d="M78.2323 146.145C78.7082 146.62 79.3618 146.81 80.0647 146.806C80.765 146.803 81.5537 146.609 82.3745 146.274C84.0183 145.601 85.8861 144.32 87.6087 142.6C89.3313 140.881 90.6158 139.018 91.2894 137.377C91.6258 136.558 91.8196 135.771 91.8232 135.072C91.8268 134.371 91.6369 133.718 91.161 133.244C90.6852 132.769 90.0316 132.579 89.3286 132.583C88.6283 132.586 87.8396 132.78 87.0188 133.115C85.375 133.788 83.5072 135.07 81.7846 136.789C80.0621 138.508 78.7775 140.371 78.1039 142.012C77.7676 142.831 77.5737 143.618 77.5701 144.317C77.5665 145.018 77.7564 145.671 78.2323 146.145Z" stroke="#61DBFB" stroke-opacity="0.47"/>
<path d="M78.2323 146.145C78.7082 146.62 79.3618 146.81 80.0647 146.806C80.765 146.803 81.5537 146.609 82.3745 146.274C84.0183 145.601 85.8861 144.32 87.6087 142.6C89.3313 140.881 90.6158 139.018 91.2894 137.377C91.6258 136.558 91.8196 135.771 91.8232 135.072C91.8268 134.371 91.6369 133.718 91.161 133.244C90.6852 132.769 90.0316 132.579 89.3286 132.583C88.6283 132.586 87.8396 132.78 87.0188 133.115C85.375 133.788 83.5072 135.07 81.7846 136.789C80.0621 138.508 78.7775 140.371 78.1039 142.012C77.7676 142.831 77.5737 143.618 77.5701 144.317C77.5665 145.018 77.7564 145.671 78.2323 146.145Z" stroke="url(#paint8_linear)"/>
</g>
<g filter="url(#filter6_i)">
<path fill-rule="evenodd" clip-rule="evenodd" d="M160 101L149.453 111.349V130.184H160L149.453 140.119V146.949L149.36 153.779V157.712L148.987 161.023L148.053 164.749L147.12 167.302L145.067 170.544L142.827 173.028L140.96 175.098L138.533 177.167L135.547 179.03L132.747 180.479L130.133 181.307L127.147 181.928L123.04 182.549H120.613L117.253 182.342L115.013 181.928L112.773 181.514L109.04 180.479L100.453 190L106.427 179.444L103.067 178.409L100.08 176.547L97.4667 174.477L94.1067 170.544L92.24 167.302L90.3733 163.093L89.2533 159.574L88.5067 157.508L87.9467 156.056L86.8267 155.614L76 151.295H100.08V155.021L100.453 158.333L101.387 161.437L103.067 164.128L104.747 165.561L106.8 166.612L109.787 167.302H113.147L124.72 142.395H92.9867L115.2 111.349L92.9867 101H160ZM133.68 111.349L120.613 130.184H133.68V111.349ZM132 161.023L130.88 163.093L128.827 165.37L126.213 166.612L123.6 167.302H120.613L133.68 153.986L133.307 158.333L132 161.023Z" fill="#B4293F"/>
<path fill-rule="evenodd" clip-rule="evenodd" d="M160 101L149.453 111.349V130.184H160L149.453 140.119V146.949L149.36 153.779V157.712L148.987 161.023L148.053 164.749L147.12 167.302L145.067 170.544L142.827 173.028L140.96 175.098L138.533 177.167L135.547 179.03L132.747 180.479L130.133 181.307L127.147 181.928L123.04 182.549H120.613L117.253 182.342L115.013 181.928L112.773 181.514L109.04 180.479L100.453 190L106.427 179.444L103.067 178.409L100.08 176.547L97.4667 174.477L94.1067 170.544L92.24 167.302L90.3733 163.093L89.2533 159.574L88.5067 157.508L87.9467 156.056L86.8267 155.614L76 151.295H100.08V155.021L100.453 158.333L101.387 161.437L103.067 164.128L104.747 165.561L106.8 166.612L109.787 167.302H113.147L124.72 142.395H92.9867L115.2 111.349L92.9867 101H160ZM133.68 111.349L120.613 130.184H133.68V111.349ZM132 161.023L130.88 163.093L128.827 165.37L126.213 166.612L123.6 167.302H120.613L133.68 153.986L133.307 158.333L132 161.023Z" fill="url(#paint9_radial)"/>
</g>
<path d="M133.68 130.184H120.613L133.68 111.349V130.184ZM133.68 130.184H149.453M149.453 130.184H160L149.453 140.119M149.453 130.184V111.349L160 101H92.9867L115.2 111.349L92.9867 142.395H124.72L113.147 167.302M113.147 167.302L106.427 179.444M113.147 167.302H109.787L106.8 166.612L104.747 165.561L103.067 164.128L101.387 161.437L100.453 158.333L100.08 155.021V151.295H76L86.8267 155.614L87.9467 156.056L88.5067 157.508L89.2533 159.574L90.3733 163.093L92.24 167.302L94.1067 170.544L97.4667 174.477L100.08 176.547L103.067 178.409L106.427 179.444M133.68 153.986L120.613 167.302M133.68 153.986L149.453 140.119M133.68 153.986L133.307 158.333L132 161.023L130.88 163.093L128.827 165.37L126.213 166.612L123.6 167.302H120.613M120.613 167.302L109.04 180.479M149.453 140.119V146.949L149.36 153.779V157.712L148.987 161.023L148.053 164.749L147.12 167.302L145.067 170.544L142.827 173.028L140.96 175.098L138.533 177.167L135.547 179.03L132.747 180.479L130.133 181.307L127.147 181.928L123.04 182.549H120.613L117.253 182.342L115.013 181.928L112.773 181.514L109.04 180.479M109.04 180.479L100.453 190L106.427 179.444" stroke="#AB9267"/>
<path d="M133.68 130.184H120.613L133.68 111.349V130.184ZM133.68 130.184H149.453M149.453 130.184H160L149.453 140.119M149.453 130.184V111.349L160 101H92.9867L115.2 111.349L92.9867 142.395H124.72L113.147 167.302M113.147 167.302L106.427 179.444M113.147 167.302H109.787L106.8 166.612L104.747 165.561L103.067 164.128L101.387 161.437L100.453 158.333L100.08 155.021V151.295H76L86.8267 155.614L87.9467 156.056L88.5067 157.508L89.2533 159.574L90.3733 163.093L92.24 167.302L94.1067 170.544L97.4667 174.477L100.08 176.547L103.067 178.409L106.427 179.444M133.68 153.986L120.613 167.302M133.68 153.986L149.453 140.119M133.68 153.986L133.307 158.333L132 161.023L130.88 163.093L128.827 165.37L126.213 166.612L123.6 167.302H120.613M120.613 167.302L109.04 180.479M149.453 140.119V146.949L149.36 153.779V157.712L148.987 161.023L148.053 164.749L147.12 167.302L145.067 170.544L142.827 173.028L140.96 175.098L138.533 177.167L135.547 179.03L132.747 180.479L130.133 181.307L127.147 181.928L123.04 182.549H120.613L117.253 182.342L115.013 181.928L112.773 181.514L109.04 180.479M109.04 180.479L100.453 190L106.427 179.444" stroke="url(#paint10_linear)"/>
<defs>
<filter id="filter0_ddd" x="0.75" y="0.878906" width="239" height="270.853" filterUnits="userSpaceOnUse" color-interpolation-filters="sRGB">
<feFlood flood-opacity="0" result="BackgroundImageFix"/>
<feColorMatrix in="SourceAlpha" type="matrix" values="0 0 0 0 0 0 0 0 0 0 0 0 0 0 0 0 0 0 127 0"/>
<feOffset dx="2" dy="2"/>
<feGaussianBlur stdDeviation="25"/>
<feColorMatrix type="matrix" values="0 0 0 0 0 0 0 0 0 0 0 0 0 0 0 0 0 0 0.64 0"/>
<feBlend mode="normal" in2="BackgroundImageFix" result="effect1_dropShadow"/>
<feColorMatrix in="SourceAlpha" type="matrix" values="0 0 0 0 0 0 0 0 0 0 0 0 0 0 0 0 0 0 127 0"/>
<feOffset dx="4" dy="4"/>
<feGaussianBlur stdDeviation="4.5"/>
<feColorMatrix type="matrix" values="0 0 0 0 0 0 0 0 0 0 0 0 0 0 0 0 0 0 0.25 0"/>
<feBlend mode="normal" in2="effect1_dropShadow" result="effect2_dropShadow"/>
<feColorMatrix in="SourceAlpha" type="matrix" values="0 0 0 0 0 0 0 0 0 0 0 0 0 0 0 0 0 0 127 0"/>
<feOffset dx="2" dy="2"/>
<feGaussianBlur stdDeviation="1.5"/>
<feColorMatrix type="matrix" values="0 0 0 0 0 0 0 0 0 0 0 0 0 0 0 0 0 0 0.4 0"/>
<feBlend mode="normal" in2="effect2_dropShadow" result="effect3_dropShadow"/>
<feBlend mode="normal" in="SourceGraphic" in2="effect3_dropShadow" result="shape"/>
</filter>
<filter id="filter1_d" x="53" y="58.5107" width="137" height="162.416" filterUnits="userSpaceOnUse" color-interpolation-filters="sRGB">
<feFlood flood-opacity="0" result="BackgroundImageFix"/>
<feColorMatrix in="SourceAlpha" type="matrix" values="0 0 0 0 0 0 0 0 0 0 0 0 0 0 0 0 0 0 127 0"/>
<feOffset dx="3" dy="5"/>
<feGaussianBlur stdDeviation="4"/>
<feColorMatrix type="matrix" values="0 0 0 0 0 0 0 0 0 0 0 0 0 0 0 0 0 0 0.25 0"/>
<feBlend mode="normal" in2="BackgroundImageFix" result="effect1_dropShadow"/>
<feBlend mode="normal" in="SourceGraphic" in2="effect1_dropShadow" result="shape"/>
</filter>
<filter id="filter2_b" x="77.4678" y="132.267" width="14.4738" height="14.4603" filterUnits="userSpaceOnUse" color-interpolation-filters="sRGB">
<feFlood flood-opacity="0" result="BackgroundImageFix"/>
<feGaussianBlur in="BackgroundImage" stdDeviation="2"/>
<feComposite in2="SourceAlpha" operator="in" result="effect1_backgroundBlur"/>
<feBlend mode="normal" in="SourceGraphic" in2="effect1_backgroundBlur" result="shape"/>
</filter>
<filter id="filter3_d" x="73.0449" y="132.042" width="23.3256" height="23.2938" filterUnits="userSpaceOnUse" color-interpolation-filters="sRGB">
<feFlood flood-opacity="0" result="BackgroundImageFix"/>
<feColorMatrix in="SourceAlpha" type="matrix" values="0 0 0 0 0 0 0 0 0 0 0 0 0 0 0 0 0 0 127 0"/>
<feOffset dy="4"/>
<feGaussianBlur stdDeviation="2"/>
<feColorMatrix type="matrix" values="0 0 0 0 0 0 0 0 0 0 0 0 0 0 0 0 0 0 0.25 0"/>
<feBlend mode="normal" in2="BackgroundImageFix" result="effect1_dropShadow"/>
<feBlend mode="normal" in="SourceGraphic" in2="effect1_dropShadow" result="shape"/>
</filter>
<filter id="filter4_d" x="71.7617" y="135.32" width="25.994" height="17.2204" filterUnits="userSpaceOnUse" color-interpolation-filters="sRGB">
<feFlood flood-opacity="0" result="BackgroundImageFix"/>
<feColorMatrix in="SourceAlpha" type="matrix" values="0 0 0 0 0 0 0 0 0 0 0 0 0 0 0 0 0 0 127 0"/>
<feOffset dy="4"/>
<feGaussianBlur stdDeviation="2"/>
<feColorMatrix type="matrix" values="0 0 0 0 0 0 0 0 0 0 0 0 0 0 0 0 0 0 0.25 0"/>
<feBlend mode="normal" in2="BackgroundImageFix" result="effect1_dropShadow"/>
<feBlend mode="normal" in="SourceGraphic" in2="effect1_dropShadow" result="shape"/>
</filter>
<filter id="filter5_d" x="73.0693" y="132.083" width="23.2541" height="23.2225" filterUnits="userSpaceOnUse" color-interpolation-filters="sRGB">
<feFlood flood-opacity="0" result="BackgroundImageFix"/>
<feColorMatrix in="SourceAlpha" type="matrix" values="0 0 0 0 0 0 0 0 0 0 0 0 0 0 0 0 0 0 127 0"/>
<feOffset dy="4"/>
<feGaussianBlur stdDeviation="2"/>
<feColorMatrix type="matrix" values="0 0 0 0 0 0 0 0 0 0 0 0 0 0 0 0 0 0 0.25 0"/>
<feBlend mode="normal" in2="BackgroundImageFix" result="effect1_dropShadow"/>
<feBlend mode="normal" in="SourceGraphic" in2="effect1_dropShadow" result="shape"/>
</filter>
<filter id="filter6_i" x="75.8145" y="100.5" width="87.4453" height="90.8349" filterUnits="userSpaceOnUse" color-interpolation-filters="sRGB">
<feFlood flood-opacity="0" result="BackgroundImageFix"/>
<feBlend mode="normal" in="SourceGraphic" in2="BackgroundImageFix" result="shape"/>
<feColorMatrix in="SourceAlpha" type="matrix" values="0 0 0 0 0 0 0 0 0 0 0 0 0 0 0 0 0 0 127 0" result="hardAlpha"/>
<feOffset dx="2" dy="1"/>
<feGaussianBlur stdDeviation="1"/>
<feComposite in2="hardAlpha" operator="arithmetic" k2="-1" k3="1"/>
<feColorMatrix type="matrix" values="0 0 0 0 0 0 0 0 0 0 0 0 0 0 0 0 0 0 0.5 0"/>
<feBlend mode="normal" in2="shape" result="effect1_innerShadow"/>
</filter>
<radialGradient id="paint0_radial" cx="0" cy="0" r="1" gradientUnits="userSpaceOnUse" gradientTransform="translate(182 244) rotate(-125.218) scale(343.343 277.309)">
<stop/>
<stop offset="1" stop-opacity="0"/>
</radialGradient>
<radialGradient id="paint1_radial" cx="0" cy="0" r="1" gradientUnits="userSpaceOnUse" gradientTransform="translate(17.5 20.5) rotate(53.5435) scale(235.606 191.387)">
<stop stop-color="white" stop-opacity="0.54"/>
<stop offset="1" stop-color="white" stop-opacity="0"/>
</radialGradient>
<radialGradient id="paint2_radial" cx="0" cy="0" r="1" gradientUnits="userSpaceOnUse" gradientTransform="translate(147.06 186.947) rotate(-121.364) scale(279.671 226.16)">
<stop/>
<stop offset="1" stop-opacity="0"/>
</radialGradient>
<radialGradient id="paint3_radial" cx="0" cy="0" r="1" gradientUnits="userSpaceOnUse" gradientTransform="translate(38.5 70.7584) rotate(42.5416) scale(154.726 123.331)">
<stop stop-color="white"/>
<stop offset="1" stop-color="white" stop-opacity="0"/>
</radialGradient>
<linearGradient id="paint4_linear" x1="59" y1="87.4945" x2="117.626" y2="207.427" gradientUnits="userSpaceOnUse">
<stop stop-color="white"/>
<stop offset="1" stop-color="#A68A5C" stop-opacity="0"/>
</linearGradient>
<linearGradient id="paint5_linear" x1="84.7046" y1="136.267" x2="86.4116" y2="142.729" gradientUnits="userSpaceOnUse">
<stop stop-color="#61DBFB" stop-opacity="0.71"/>
<stop offset="1" stop-color="#0E3944"/>
</linearGradient>
<linearGradient id="paint6_linear" x1="78.5581" y1="133.553" x2="90.8308" y2="145.851" gradientUnits="userSpaceOnUse">
<stop stop-color="#8BD0E2"/>
<stop offset="1" stop-color="#1A8DAB" stop-opacity="0.72"/>
</linearGradient>
<linearGradient id="paint7_linear" x1="76.7617" y1="139.931" x2="92.7557" y2="139.931" gradientUnits="userSpaceOnUse">
<stop stop-color="#61DBFB"/>
<stop offset="1" stop-color="white" stop-opacity="0"/>
</linearGradient>
<linearGradient id="paint8_linear" x1="90.8071" y1="133.597" x2="78.6116" y2="145.818" gradientUnits="userSpaceOnUse">
<stop stop-color="#61DBFB"/>
<stop offset="1" stop-color="white" stop-opacity="0"/>
</linearGradient>
<radialGradient id="paint9_radial" cx="0" cy="0" r="1" gradientUnits="userSpaceOnUse" gradientTransform="translate(140.105 135.452) rotate(142.33) scale(125.67 114.807)">
<stop stop-opacity="0.54"/>
<stop offset="1" stop-color="#B4293F" stop-opacity="0.28"/>
</radialGradient>
<linearGradient id="paint10_linear" x1="118" y1="101" x2="118" y2="190" gradientUnits="userSpaceOnUse">
<stop stop-color="white"/>
<stop offset="1" stop-color="white" stop-opacity="0"/>
</linearGradient>
</defs>
</svg>
