<svg width="151" height="183" viewBox="0 0 151 183" fill="none" xmlns="http://www.w3.org/2000/svg">
<g filter="url(#filter0_d)">
<path d="M74.5 5.5L72.25 1.45L70 5.5L64.5 11.5L56.5 16.5L47 21.5L38 25L26.5 28L16 30L12 31H3V62L4.5 78L6 88L7.5 95L12 108.5L21 128.5L30.5 142L40.5 152.5L50.5 161L61.5 167L72.25 171.398L83 167L94 161L104 152.5L114 142L123.5 128.5L132.5 108.5L137 95L138.5 88L140 78L141.5 62V31H132.5L128.5 30L118 28L106.5 25L97.5 21.5L88 16.5L80 11.5L74.5 5.5Z" fill="#379A82"/>
<path d="M74.5 5.5L72.25 1.45L70 5.5L64.5 11.5L56.5 16.5L47 21.5L38 25L26.5 28L16 30L12 31H3V62L4.5 78L6 88L7.5 95L12 108.5L21 128.5L30.5 142L40.5 152.5L50.5 161L61.5 167L72.25 171.398L83 167L94 161L104 152.5L114 142L123.5 128.5L132.5 108.5L137 95L138.5 88L140 78L141.5 62V31H132.5L128.5 30L118 28L106.5 25L97.5 21.5L88 16.5L80 11.5L74.5 5.5Z" fill="url(#paint0_radial)"/>
<path d="M74.5 5.5L72.25 1.45L70 5.5L64.5 11.5L56.5 16.5L47 21.5L38 25L26.5 28L16 30L12 31H3V62L4.5 78L6 88L7.5 95L12 108.5L21 128.5L30.5 142L40.5 152.5L50.5 161L61.5 167L72.25 171.398L83 167L94 161L104 152.5L114 142L123.5 128.5L132.5 108.5L137 95L138.5 88L140 78L141.5 62V31H132.5L128.5 30L118 28L106.5 25L97.5 21.5L88 16.5L80 11.5L74.5 5.5Z" fill="url(#paint1_linear)"/>
<path d="M74.5 5.5L72.25 1.45L70 5.5L64.5 11.5L56.5 16.5L47 21.5L38 25L26.5 28L16 30L12 31H3V62L4.5 78L6 88L7.5 95L12 108.5L21 128.5L30.5 142L40.5 152.5L50.5 161L61.5 167L72.25 171.398L83 167L94 161L104 152.5L114 142L123.5 128.5L132.5 108.5L137 95L138.5 88L140 78L141.5 62V31H132.5L128.5 30L118 28L106.5 25L97.5 21.5L88 16.5L80 11.5L74.5 5.5Z" fill="url(#paint2_linear)"/>
</g>
<g filter="url(#filter1_d)">
<path d="M74.4332 17.827L72.5 14.3827L70.5668 17.827L65.8412 22.9296L58.9675 27.1818L50.8051 31.434L43.0722 34.4106L33.1913 36.9619L24.1697 38.6628L20.7329 39.5132H13V65.8768L14.2888 79.4839L15.5776 87.9883L16.8664 93.9414L20.7329 105.422L28.4657 122.431L36.6282 133.912L45.2202 142.842L53.8123 150.07L63.2635 155.173L72.5 158.913L81.7365 155.173L91.1877 150.07L99.7798 142.842L108.372 133.912L116.534 122.431L124.267 105.422L128.134 93.9414L129.422 87.9883L130.711 79.4839L132 65.8768V39.5132H124.267L120.83 38.6628L111.809 36.9619L101.928 34.4106L94.1949 31.434L86.0325 27.1818L79.1588 22.9296L74.4332 17.827Z" fill="#0BA9A9"/>
<path d="M74.4332 17.827L72.5 14.3827L70.5668 17.827L65.8412 22.9296L58.9675 27.1818L50.8051 31.434L43.0722 34.4106L33.1913 36.9619L24.1697 38.6628L20.7329 39.5132H13V65.8768L14.2888 79.4839L15.5776 87.9883L16.8664 93.9414L20.7329 105.422L28.4657 122.431L36.6282 133.912L45.2202 142.842L53.8123 150.07L63.2635 155.173L72.5 158.913L81.7365 155.173L91.1877 150.07L99.7798 142.842L108.372 133.912L116.534 122.431L124.267 105.422L128.134 93.9414L129.422 87.9883L130.711 79.4839L132 65.8768V39.5132H124.267L120.83 38.6628L111.809 36.9619L101.928 34.4106L94.1949 31.434L86.0325 27.1818L79.1588 22.9296L74.4332 17.827Z" fill="url(#paint3_radial)"/>
<path d="M74.4332 17.827L72.5 14.3827L70.5668 17.827L65.8412 22.9296L58.9675 27.1818L50.8051 31.434L43.0722 34.4106L33.1913 36.9619L24.1697 38.6628L20.7329 39.5132H13V65.8768L14.2888 79.4839L15.5776 87.9883L16.8664 93.9414L20.7329 105.422L28.4657 122.431L36.6282 133.912L45.2202 142.842L53.8123 150.07L63.2635 155.173L72.5 158.913L81.7365 155.173L91.1877 150.07L99.7798 142.842L108.372 133.912L116.534 122.431L124.267 105.422L128.134 93.9414L129.422 87.9883L130.711 79.4839L132 65.8768V39.5132H124.267L120.83 38.6628L111.809 36.9619L101.928 34.4106L94.1949 31.434L86.0325 27.1818L79.1588 22.9296L74.4332 17.827Z" fill="url(#paint4_radial)"/>
<path d="M74.4332 17.827L72.5 14.3827L70.5668 17.827L65.8412 22.9296L58.9675 27.1818L50.8051 31.434L43.0722 34.4106L33.1913 36.9619L24.1697 38.6628L20.7329 39.5132H13V65.8768L14.2888 79.4839L15.5776 87.9883L16.8664 93.9414L20.7329 105.422L28.4657 122.431L36.6282 133.912L45.2202 142.842L53.8123 150.07L63.2635 155.173L72.5 158.913L81.7365 155.173L91.1877 150.07L99.7798 142.842L108.372 133.912L116.534 122.431L124.267 105.422L128.134 93.9414L129.422 87.9883L130.711 79.4839L132 65.8768V39.5132H124.267L120.83 38.6628L111.809 36.9619L101.928 34.4106L94.1949 31.434L86.0325 27.1818L79.1588 22.9296L74.4332 17.827Z" fill="url(#paint5_linear)"/>
<path d="M72.2852 14L74.4332 17.827L79.1588 22.9296L86.0325 27.1818L94.1949 31.434L101.928 34.4106L111.809 36.9619L120.83 38.6628L124.267 39.5132H132V65.8768L130.711 79.4839L129.422 87.9883L128.134 93.9414L124.267 105.422L116.534 122.431L108.372 133.912L99.7798 142.842L91.1877 150.07L81.7365 155.173L72.2852 159M72.7148 14L70.5668 17.827L65.8412 22.9296L58.9675 27.1818L50.8051 31.434L43.0722 34.4106L33.1913 36.9619L24.1697 38.6628L20.7329 39.5132H13V65.8768L14.2888 79.4839L15.5776 87.9883L16.8664 93.9414L20.7329 105.422L28.4657 122.431L36.6282 133.912L45.2202 142.842L53.8123 150.07L63.2635 155.173L72.7148 159" stroke="#A68A5C" stroke-width="2"/>
<path d="M72.2852 14L74.4332 17.827L79.1588 22.9296L86.0325 27.1818L94.1949 31.434L101.928 34.4106L111.809 36.9619L120.83 38.6628L124.267 39.5132H132V65.8768L130.711 79.4839L129.422 87.9883L128.134 93.9414L124.267 105.422L116.534 122.431L108.372 133.912L99.7798 142.842L91.1877 150.07L81.7365 155.173L72.2852 159M72.7148 14L70.5668 17.827L65.8412 22.9296L58.9675 27.1818L50.8051 31.434L43.0722 34.4106L33.1913 36.9619L24.1697 38.6628L20.7329 39.5132H13V65.8768L14.2888 79.4839L15.5776 87.9883L16.8664 93.9414L20.7329 105.422L28.4657 122.431L36.6282 133.912L45.2202 142.842L53.8123 150.07L63.2635 155.173L72.7148 159" stroke="url(#paint6_linear)" stroke-width="2"/>
</g>
<g filter="url(#filter2_b)">
<ellipse cx="38.7047" cy="91.4968" rx="3.23688" ry="3.23016" fill="#61DBFB" fill-opacity="0.63"/>
<ellipse cx="38.7047" cy="91.4968" rx="3.23688" ry="3.23016" fill="url(#paint7_linear)"/>
</g>
<g filter="url(#filter3_d)">
<path d="M45.2103 98.1786C45.687 97.7029 45.8752 97.0486 45.8694 96.3454C45.8635 95.6447 45.6667 94.855 45.3269 94.0326C44.6463 92.3857 43.3523 90.5125 41.6192 88.7831C39.8862 87.0537 38.0091 85.7624 36.3588 85.0831C35.5348 84.744 34.7434 84.5476 34.0412 84.5418C33.3365 84.536 32.6809 84.7238 32.2042 85.1995C31.7275 85.6752 31.5393 86.3295 31.5451 87.0327C31.5509 87.7335 31.7477 88.5232 32.0876 89.3455C32.7682 90.9924 34.0622 92.8656 35.7952 94.595C37.5282 96.3245 39.4053 97.6158 41.0556 98.295C41.8797 98.6341 42.671 98.8305 43.3733 98.8363C44.0779 98.8422 44.7336 98.6543 45.2103 98.1786Z" stroke="#61DBFB" stroke-opacity="0.47"/>
<path d="M45.2103 98.1786C45.687 97.7029 45.8752 97.0486 45.8694 96.3454C45.8635 95.6447 45.6667 94.855 45.3269 94.0326C44.6463 92.3857 43.3523 90.5125 41.6192 88.7831C39.8862 87.0537 38.0091 85.7624 36.3588 85.0831C35.5348 84.744 34.7434 84.5476 34.0412 84.5418C33.3365 84.536 32.6809 84.7238 32.2042 85.1995C31.7275 85.6752 31.5393 86.3295 31.5451 87.0327C31.5509 87.7335 31.7477 88.5232 32.0876 89.3455C32.7682 90.9924 34.0622 92.8656 35.7952 94.595C37.5282 96.3245 39.4053 97.6158 41.0556 98.295C41.8797 98.6341 42.671 98.8305 43.3733 98.8363C44.0779 98.8422 44.7336 98.6543 45.2103 98.1786Z" stroke="url(#paint8_linear)"/>
</g>
<g filter="url(#filter4_d)">
<path d="M47.2557 91.9308C47.2557 90.6154 46.0984 89.5901 44.6192 88.9223C43.0936 88.2336 41.0212 87.8206 38.7587 87.8206C36.4962 87.8206 34.4238 88.2336 32.8983 88.9223C31.4191 89.5901 30.2617 90.6154 30.2617 91.9308C30.2617 93.2462 31.4191 94.2716 32.8983 94.9393C34.4238 95.628 36.4962 96.041 38.7587 96.041C41.0212 96.041 43.0936 95.628 44.6192 94.9393C46.0984 94.2716 47.2557 93.2462 47.2557 91.9308Z" stroke="#61DBFB" stroke-opacity="0.47"/>
<path d="M47.2557 91.9308C47.2557 90.6154 46.0984 89.5901 44.6192 88.9223C43.0936 88.2336 41.0212 87.8206 38.7587 87.8206C36.4962 87.8206 34.4238 88.2336 32.8983 88.9223C31.4191 89.5901 30.2617 90.6154 30.2617 91.9308C30.2617 93.2462 31.4191 94.2716 32.8983 94.9393C34.4238 95.628 36.4962 96.041 38.7587 96.041C41.0212 96.041 43.0936 95.628 44.6192 94.9393C46.0984 94.2716 47.2557 93.2462 47.2557 91.9308Z" stroke="url(#paint9_linear)"/>
</g>
<g filter="url(#filter5_d)">
<path d="M32.2323 98.1455C32.7082 98.6204 33.3618 98.8098 34.0647 98.8062C34.765 98.8027 35.5537 98.6092 36.3745 98.2736C38.0183 97.6014 39.8861 96.3195 41.6087 94.6005C43.3313 92.8815 44.6158 91.0176 45.2894 89.3772C45.6258 88.5581 45.8196 87.771 45.8232 87.0721C45.8268 86.3707 45.6369 85.7184 45.161 85.2435C44.6852 84.7687 44.0316 84.5792 43.3286 84.5828C42.6283 84.5864 41.8396 84.7798 41.0188 85.1155C39.375 85.7877 37.5072 87.0695 35.7846 88.7885C34.0621 90.5076 32.7775 92.3715 32.1039 94.0118C31.7676 94.8309 31.5737 95.618 31.5701 96.3169C31.5665 97.0184 31.7564 97.6706 32.2323 98.1455Z" stroke="#61DBFB" stroke-opacity="0.47"/>
<path d="M32.2323 98.1455C32.7082 98.6204 33.3618 98.8098 34.0647 98.8062C34.765 98.8027 35.5537 98.6092 36.3745 98.2736C38.0183 97.6014 39.8861 96.3195 41.6087 94.6005C43.3313 92.8815 44.6158 91.0176 45.2894 89.3772C45.6258 88.5581 45.8196 87.771 45.8232 87.0721C45.8268 86.3707 45.6369 85.7184 45.161 85.2435C44.6852 84.7687 44.0316 84.5792 43.3286 84.5828C42.6283 84.5864 41.8396 84.7798 41.0188 85.1155C39.375 85.7877 37.5072 87.0695 35.7846 88.7885C34.0621 90.5076 32.7775 92.3715 32.1039 94.0118C31.7676 94.8309 31.5737 95.618 31.5701 96.3169C31.5665 97.0184 31.7564 97.6706 32.2323 98.1455Z" stroke="url(#paint10_linear)"/>
</g>
<g filter="url(#filter6_di)">
<path fill-rule="evenodd" clip-rule="evenodd" d="M114 53L103.453 63.3488V82.1837H114L103.453 92.1186V98.9488L103.36 105.779V109.712L102.987 113.023L102.053 116.749L101.12 119.302L99.0667 122.544L96.8267 125.028L94.96 127.098L92.5333 129.167L89.5467 131.03L86.7467 132.479L84.1333 133.307L81.1467 133.928L77.04 134.549H74.6133L71.2533 134.342L69.0133 133.928L66.7733 133.514L63.04 132.479L54.4533 142L60.4267 131.444L57.0667 130.409L54.08 128.547L51.4667 126.477L48.1067 122.544L46.24 119.302L44.3733 115.093L43.2533 111.574L42.5067 109.508L41.9467 108.056L40.8267 107.614L30 103.295H54.08V107.021L54.4533 110.333L55.3867 113.437L57.0667 116.128L58.7467 117.561L60.8 118.612L63.7867 119.302H67.1467L78.72 94.3953H46.9867L69.2 63.3488L46.9867 53H114ZM87.68 63.3488L74.6133 82.1837H87.68V63.3488ZM86 113.023L84.88 115.093L82.8267 117.37L80.2133 118.612L77.6 119.302H74.6133L87.68 105.986L87.3067 110.333L86 113.023Z" fill="#61DBFB" fill-opacity="0.71"/>
<path fill-rule="evenodd" clip-rule="evenodd" d="M114 53L103.453 63.3488V82.1837H114L103.453 92.1186V98.9488L103.36 105.779V109.712L102.987 113.023L102.053 116.749L101.12 119.302L99.0667 122.544L96.8267 125.028L94.96 127.098L92.5333 129.167L89.5467 131.03L86.7467 132.479L84.1333 133.307L81.1467 133.928L77.04 134.549H74.6133L71.2533 134.342L69.0133 133.928L66.7733 133.514L63.04 132.479L54.4533 142L60.4267 131.444L57.0667 130.409L54.08 128.547L51.4667 126.477L48.1067 122.544L46.24 119.302L44.3733 115.093L43.2533 111.574L42.5067 109.508L41.9467 108.056L40.8267 107.614L30 103.295H54.08V107.021L54.4533 110.333L55.3867 113.437L57.0667 116.128L58.7467 117.561L60.8 118.612L63.7867 119.302H67.1467L78.72 94.3953H46.9867L69.2 63.3488L46.9867 53H114ZM87.68 63.3488L74.6133 82.1837H87.68V63.3488ZM86 113.023L84.88 115.093L82.8267 117.37L80.2133 118.612L77.6 119.302H74.6133L87.68 105.986L87.3067 110.333L86 113.023Z" fill="url(#paint11_radial)"/>
<path d="M87.68 82.1837H74.6133L87.68 63.3488V82.1837ZM87.68 82.1837H103.453M103.453 82.1837H114L103.453 92.1186M103.453 82.1837V63.3488L114 53H46.9867L69.2 63.3488L46.9867 94.3953H78.72L67.1467 119.302M67.1467 119.302L60.4267 131.444M67.1467 119.302H63.7867L60.8 118.612L58.7467 117.561L57.0667 116.128L55.3867 113.437L54.4533 110.333L54.08 107.021V103.295H30L40.8267 107.614L41.9467 108.056L42.5067 109.508L43.2533 111.574L44.3733 115.093L46.24 119.302L48.1067 122.544L51.4667 126.477L54.08 128.547L57.0667 130.409L60.4267 131.444M87.68 105.986L74.6133 119.302M87.68 105.986L103.453 92.1186M87.68 105.986L87.3067 110.333L86 113.023L84.88 115.093L82.8267 117.37L80.2133 118.612L77.6 119.302H74.6133M74.6133 119.302L63.04 132.479M103.453 92.1186V98.9488L103.36 105.779V109.712L102.987 113.023L102.053 116.749L101.12 119.302L99.0667 122.544L96.8267 125.028L94.96 127.098L92.5333 129.167L89.5467 131.03L86.7467 132.479L84.1333 133.307L81.1467 133.928L77.04 134.549H74.6133L71.2533 134.342L69.0133 133.928L66.7733 133.514L63.04 132.479M63.04 132.479L54.4533 142L60.4267 131.444" stroke="#AB9267"/>
<path d="M87.68 82.1837H74.6133L87.68 63.3488V82.1837ZM87.68 82.1837H103.453M103.453 82.1837H114L103.453 92.1186M103.453 82.1837V63.3488L114 53H46.9867L69.2 63.3488L46.9867 94.3953H78.72L67.1467 119.302M67.1467 119.302L60.4267 131.444M67.1467 119.302H63.7867L60.8 118.612L58.7467 117.561L57.0667 116.128L55.3867 113.437L54.4533 110.333L54.08 107.021V103.295H30L40.8267 107.614L41.9467 108.056L42.5067 109.508L43.2533 111.574L44.3733 115.093L46.24 119.302L48.1067 122.544L51.4667 126.477L54.08 128.547L57.0667 130.409L60.4267 131.444M87.68 105.986L74.6133 119.302M87.68 105.986L103.453 92.1186M87.68 105.986L87.3067 110.333L86 113.023L84.88 115.093L82.8267 117.37L80.2133 118.612L77.6 119.302H74.6133M74.6133 119.302L63.04 132.479M103.453 92.1186V98.9488L103.36 105.779V109.712L102.987 113.023L102.053 116.749L101.12 119.302L99.0667 122.544L96.8267 125.028L94.96 127.098L92.5333 129.167L89.5467 131.03L86.7467 132.479L84.1333 133.307L81.1467 133.928L77.04 134.549H74.6133L71.2533 134.342L69.0133 133.928L66.7733 133.514L63.04 132.479M63.04 132.479L54.4533 142L60.4267 131.444" stroke="url(#paint12_linear)"/>
</g>
<defs>
<filter id="filter0_d" x="0" y="0.450195" width="150.5" height="181.948" filterUnits="userSpaceOnUse" color-interpolation-filters="sRGB">
<feFlood flood-opacity="0" result="BackgroundImageFix"/>
<feColorMatrix in="SourceAlpha" type="matrix" values="0 0 0 0 0 0 0 0 0 0 0 0 0 0 0 0 0 0 127 0"/>
<feOffset dx="3" dy="5"/>
<feGaussianBlur stdDeviation="3"/>
<feColorMatrix type="matrix" values="0 0 0 0 0 0 0 0 0 0 0 0 0 0 0 0 0 0 0.25 0"/>
<feBlend mode="normal" in2="BackgroundImageFix" result="effect1_dropShadow"/>
<feBlend mode="normal" in="SourceGraphic" in2="effect1_dropShadow" result="shape"/>
</filter>
<filter id="filter1_d" x="2" y="5.51074" width="147" height="172.416" filterUnits="userSpaceOnUse" color-interpolation-filters="sRGB">
<feFlood flood-opacity="0" result="BackgroundImageFix"/>
<feColorMatrix in="SourceAlpha" type="matrix" values="0 0 0 0 0 0 0 0 0 0 0 0 0 0 0 0 0 0 127 0"/>
<feOffset dx="3" dy="5"/>
<feGaussianBlur stdDeviation="6.5"/>
<feColorMatrix type="matrix" values="0 0 0 0 0 0 0 0 0 0 0 0 0 0 0 0 0 0 0.25 0"/>
<feBlend mode="normal" in2="BackgroundImageFix" result="effect1_dropShadow"/>
<feBlend mode="normal" in="SourceGraphic" in2="effect1_dropShadow" result="shape"/>
</filter>
<filter id="filter2_b" x="31.4678" y="84.2666" width="14.4738" height="14.4603" filterUnits="userSpaceOnUse" color-interpolation-filters="sRGB">
<feFlood flood-opacity="0" result="BackgroundImageFix"/>
<feGaussianBlur in="BackgroundImage" stdDeviation="2"/>
<feComposite in2="SourceAlpha" operator="in" result="effect1_backgroundBlur"/>
<feBlend mode="normal" in="SourceGraphic" in2="effect1_backgroundBlur" result="shape"/>
</filter>
<filter id="filter3_d" x="27.0449" y="84.042" width="23.3256" height="23.2938" filterUnits="userSpaceOnUse" color-interpolation-filters="sRGB">
<feFlood flood-opacity="0" result="BackgroundImageFix"/>
<feColorMatrix in="SourceAlpha" type="matrix" values="0 0 0 0 0 0 0 0 0 0 0 0 0 0 0 0 0 0 127 0"/>
<feOffset dy="4"/>
<feGaussianBlur stdDeviation="2"/>
<feColorMatrix type="matrix" values="0 0 0 0 0 0 0 0 0 0 0 0 0 0 0 0 0 0 0.25 0"/>
<feBlend mode="normal" in2="BackgroundImageFix" result="effect1_dropShadow"/>
<feBlend mode="normal" in="SourceGraphic" in2="effect1_dropShadow" result="shape"/>
</filter>
<filter id="filter4_d" x="25.7617" y="87.3203" width="25.994" height="17.2204" filterUnits="userSpaceOnUse" color-interpolation-filters="sRGB">
<feFlood flood-opacity="0" result="BackgroundImageFix"/>
<feColorMatrix in="SourceAlpha" type="matrix" values="0 0 0 0 0 0 0 0 0 0 0 0 0 0 0 0 0 0 127 0"/>
<feOffset dy="4"/>
<feGaussianBlur stdDeviation="2"/>
<feColorMatrix type="matrix" values="0 0 0 0 0 0 0 0 0 0 0 0 0 0 0 0 0 0 0.25 0"/>
<feBlend mode="normal" in2="BackgroundImageFix" result="effect1_dropShadow"/>
<feBlend mode="normal" in="SourceGraphic" in2="effect1_dropShadow" result="shape"/>
</filter>
<filter id="filter5_d" x="27.0693" y="84.083" width="23.2541" height="23.2225" filterUnits="userSpaceOnUse" color-interpolation-filters="sRGB">
<feFlood flood-opacity="0" result="BackgroundImageFix"/>
<feColorMatrix in="SourceAlpha" type="matrix" values="0 0 0 0 0 0 0 0 0 0 0 0 0 0 0 0 0 0 127 0"/>
<feOffset dy="4"/>
<feGaussianBlur stdDeviation="2"/>
<feColorMatrix type="matrix" values="0 0 0 0 0 0 0 0 0 0 0 0 0 0 0 0 0 0 0.25 0"/>
<feBlend mode="normal" in2="BackgroundImageFix" result="effect1_dropShadow"/>
<feBlend mode="normal" in="SourceGraphic" in2="effect1_dropShadow" result="shape"/>
</filter>
<filter id="filter6_di" x="25.8145" y="52.5" width="93.4453" height="97.8349" filterUnits="userSpaceOnUse" color-interpolation-filters="sRGB">
<feFlood flood-opacity="0" result="BackgroundImageFix"/>
<feColorMatrix in="SourceAlpha" type="matrix" values="0 0 0 0 0 0 0 0 0 0 0 0 0 0 0 0 0 0 127 0"/>
<feOffset dy="4"/>
<feGaussianBlur stdDeviation="2"/>
<feColorMatrix type="matrix" values="0 0 0 0 0 0 0 0 0 0 0 0 0 0 0 0 0 0 0.25 0"/>
<feBlend mode="normal" in2="BackgroundImageFix" result="effect1_dropShadow"/>
<feBlend mode="normal" in="SourceGraphic" in2="effect1_dropShadow" result="shape"/>
<feColorMatrix in="SourceAlpha" type="matrix" values="0 0 0 0 0 0 0 0 0 0 0 0 0 0 0 0 0 0 127 0" result="hardAlpha"/>
<feOffset dx="3" dy="2"/>
<feGaussianBlur stdDeviation="2"/>
<feComposite in2="hardAlpha" operator="arithmetic" k2="-1" k3="1"/>
<feColorMatrix type="matrix" values="0 0 0 0 0 0 0 0 0 0 0 0 0 0 0 0 0 0 0.5 0"/>
<feBlend mode="normal" in2="shape" result="effect2_innerShadow"/>
</filter>
<radialGradient id="paint0_radial" cx="0" cy="0" r="1" gradientUnits="userSpaceOnUse" gradientTransform="translate(25 43.5) rotate(53.6689) scale(159.507 129.57)">
<stop stop-color="white"/>
<stop offset="1" stop-color="white" stop-opacity="0"/>
</radialGradient>
<linearGradient id="paint1_linear" x1="3" y1="10" x2="166" y2="179" gradientUnits="userSpaceOnUse">
<stop stop-color="#A8D7BB" stop-opacity="0.64"/>
<stop offset="1" stop-color="white" stop-opacity="0"/>
</linearGradient>
<linearGradient id="paint2_linear" x1="-66" y1="-52" x2="99.5" y2="107.5" gradientUnits="userSpaceOnUse">
<stop stop-color="white"/>
<stop offset="1" stop-color="white" stop-opacity="0"/>
</linearGradient>
<radialGradient id="paint3_radial" cx="0" cy="0" r="1" gradientUnits="userSpaceOnUse" gradientTransform="translate(20 46.5) rotate(64.9831) scale(124.147 101.886)">
<stop stop-color="white" stop-opacity="0.79"/>
<stop offset="1" stop-color="white" stop-opacity="0"/>
</radialGradient>
<radialGradient id="paint4_radial" cx="0" cy="0" r="1" gradientUnits="userSpaceOnUse" gradientTransform="translate(97.5 132.5) rotate(46.2873) scale(188.845 154.983)">
<stop/>
<stop offset="1" stop-color="#379A82" stop-opacity="0.04"/>
</radialGradient>
<linearGradient id="paint5_linear" x1="13" y1="14" x2="99.5" y2="59" gradientUnits="userSpaceOnUse">
<stop offset="0.104167" stop-color="white" stop-opacity="0.54"/>
<stop offset="0.83959" stop-color="white" stop-opacity="0"/>
</linearGradient>
<linearGradient id="paint6_linear" x1="13" y1="39.4945" x2="71.6259" y2="159.427" gradientUnits="userSpaceOnUse">
<stop stop-color="white"/>
<stop offset="1" stop-color="#A68A5C" stop-opacity="0"/>
</linearGradient>
<linearGradient id="paint7_linear" x1="38.7046" y1="88.2666" x2="40.4116" y2="94.7287" gradientUnits="userSpaceOnUse">
<stop stop-color="#61DBFB" stop-opacity="0.71"/>
<stop offset="1" stop-color="#0E3944"/>
</linearGradient>
<linearGradient id="paint8_linear" x1="32.5581" y1="85.5527" x2="44.8308" y2="97.8509" gradientUnits="userSpaceOnUse">
<stop stop-color="#8BD0E2"/>
<stop offset="1" stop-color="#1A8DAB" stop-opacity="0.72"/>
</linearGradient>
<linearGradient id="paint9_linear" x1="30.7617" y1="91.9308" x2="46.7557" y2="91.9308" gradientUnits="userSpaceOnUse">
<stop stop-color="#61DBFB"/>
<stop offset="1" stop-color="white" stop-opacity="0"/>
</linearGradient>
<linearGradient id="paint10_linear" x1="44.8071" y1="85.5967" x2="32.6116" y2="97.8176" gradientUnits="userSpaceOnUse">
<stop stop-color="#61DBFB"/>
<stop offset="1" stop-color="white" stop-opacity="0"/>
</linearGradient>
<radialGradient id="paint11_radial" cx="0" cy="0" r="1" gradientUnits="userSpaceOnUse" gradientTransform="translate(114 46.5) rotate(133.467) scale(145.362 132.797)">
<stop stop-opacity="0.59"/>
<stop offset="1" stop-color="#B4293F" stop-opacity="0.28"/>
</radialGradient>
<linearGradient id="paint12_linear" x1="72" y1="53" x2="72" y2="142" gradientUnits="userSpaceOnUse">
<stop stop-color="white"/>
<stop offset="1" stop-color="white" stop-opacity="0"/>
</linearGradient>
</defs>
</svg>
