<svg width="144" height="180" viewBox="0 0 144 180" fill="none" xmlns="http://www.w3.org/2000/svg">
<g filter="url(#filter0_d)">
<path fill-rule="evenodd" clip-rule="evenodd" d="M118.135 51.8739L106.369 63.6537V85.0929H118.135L106.369 96.4015V104.176L106.265 111.951V116.427L105.849 120.197L104.808 124.437L103.766 127.343L101.476 131.034L98.9768 133.861L96.8944 136.217L94.1873 138.573L90.8555 140.694L87.7319 142.343L84.8165 143.285L81.4847 143.992L76.9034 144.699H74.1963L70.448 144.463L67.9491 143.992L65.4502 143.521L61.2854 142.343L51.7064 153.18L58.3701 141.165L54.6218 139.987L51.2899 137.866L48.3746 135.51L44.6263 131.034L42.5439 127.343L40.4615 122.553L39.212 118.548L38.3791 116.195L37.7543 114.542L36.5049 114.04L24.427 109.124H51.2899V113.364L51.7064 117.134L52.7476 120.668L54.6218 123.731L56.4959 125.362L58.7865 126.558L62.1184 127.343H65.8667L78.7776 98.9931H43.3768L68.1573 63.6537L43.3768 51.8739H118.135ZM88.7731 63.6537L74.1963 85.0929H88.7731V63.6537ZM86.8989 120.197L85.6495 122.553L83.3588 125.144L80.4435 126.558L77.5281 127.343H74.1963L88.7731 112.186L88.3566 117.134L86.8989 120.197Z" fill="#B4293F"/>
<path fill-rule="evenodd" clip-rule="evenodd" d="M118.135 51.8739L106.369 63.6537V85.0929H118.135L106.369 96.4015V104.176L106.265 111.951V116.427L105.849 120.197L104.808 124.437L103.766 127.343L101.476 131.034L98.9768 133.861L96.8944 136.217L94.1873 138.573L90.8555 140.694L87.7319 142.343L84.8165 143.285L81.4847 143.992L76.9034 144.699H74.1963L70.448 144.463L67.9491 143.992L65.4502 143.521L61.2854 142.343L51.7064 153.18L58.3701 141.165L54.6218 139.987L51.2899 137.866L48.3746 135.51L44.6263 131.034L42.5439 127.343L40.4615 122.553L39.212 118.548L38.3791 116.195L37.7543 114.542L36.5049 114.04L24.427 109.124H51.2899V113.364L51.7064 117.134L52.7476 120.668L54.6218 123.731L56.4959 125.362L58.7865 126.558L62.1184 127.343H65.8667L78.7776 98.9931H43.3768L68.1573 63.6537L43.3768 51.8739H118.135ZM88.7731 63.6537L74.1963 85.0929H88.7731V63.6537ZM86.8989 120.197L85.6495 122.553L83.3588 125.144L80.4435 126.558L77.5281 127.343H74.1963L88.7731 112.186L88.3566 117.134L86.8989 120.197Z" fill="url(#paint0_radial)"/>
<path d="M88.7731 85.0929H74.1963L88.7731 63.6537V85.0929ZM88.7731 85.0929H106.369M106.369 85.0929H118.135L106.369 96.4015M106.369 85.0929V63.6537L118.135 51.8739H43.3768L68.1573 63.6537L43.3768 98.9931H78.7776L65.8667 127.343M65.8667 127.343L58.3701 141.165M65.8667 127.343H62.1184L58.7865 126.558L56.4959 125.362L54.6218 123.731L52.7476 120.668L51.7064 117.134L51.2899 113.364V109.124H24.427L36.5049 114.04L37.7543 114.542L38.3791 116.195L39.212 118.548L40.4615 122.553L42.5439 127.343L44.6263 131.034L48.3746 135.51L51.2899 137.866L54.6218 139.987L58.3701 141.165M88.7731 112.186L74.1963 127.343M88.7731 112.186L106.369 96.4015M88.7731 112.186L88.3566 117.134L86.8989 120.197L85.6495 122.553L83.3588 125.144L80.4435 126.558L77.5281 127.343H74.1963M74.1963 127.343L61.2854 142.343M106.369 96.4015V104.176L106.265 111.951V116.427L105.849 120.197L104.808 124.437L103.766 127.343L101.476 131.034L98.9768 133.861L96.8944 136.217L94.1873 138.573L90.8555 140.694L87.7319 142.343L84.8165 143.285L81.4847 143.992L76.9034 144.699H74.1963L70.448 144.463L67.9491 143.992L65.4502 143.521L61.2854 142.343M61.2854 142.343L51.7064 153.18L58.3701 141.165" stroke="#AB9267"/>
<path d="M88.7731 85.0929H74.1963L88.7731 63.6537V85.0929ZM88.7731 85.0929H106.369M106.369 85.0929H118.135L106.369 96.4015M106.369 85.0929V63.6537L118.135 51.8739H43.3768L68.1573 63.6537L43.3768 98.9931H78.7776L65.8667 127.343M65.8667 127.343L58.3701 141.165M65.8667 127.343H62.1184L58.7865 126.558L56.4959 125.362L54.6218 123.731L52.7476 120.668L51.7064 117.134L51.2899 113.364V109.124H24.427L36.5049 114.04L37.7543 114.542L38.3791 116.195L39.212 118.548L40.4615 122.553L42.5439 127.343L44.6263 131.034L48.3746 135.51L51.2899 137.866L54.6218 139.987L58.3701 141.165M88.7731 112.186L74.1963 127.343M88.7731 112.186L106.369 96.4015M88.7731 112.186L88.3566 117.134L86.8989 120.197L85.6495 122.553L83.3588 125.144L80.4435 126.558L77.5281 127.343H74.1963M74.1963 127.343L61.2854 142.343M106.369 96.4015V104.176L106.265 111.951V116.427L105.849 120.197L104.808 124.437L103.766 127.343L101.476 131.034L98.9768 133.861L96.8944 136.217L94.1873 138.573L90.8555 140.694L87.7319 142.343L84.8165 143.285L81.4847 143.992L76.9034 144.699H74.1963L70.448 144.463L67.9491 143.992L65.4502 143.521L61.2854 142.343M61.2854 142.343L51.7064 153.18L58.3701 141.165" stroke="url(#paint1_linear)"/>
</g>
<g filter="url(#filter1_b)">
<ellipse cx="33.7951" cy="96.865" rx="3.48355" ry="3.47633" fill="#61DBFB" fill-opacity="0.63"/>
<ellipse cx="33.7951" cy="96.865" rx="3.48355" ry="3.47633" fill="url(#paint2_linear)"/>
</g>
<g filter="url(#filter2_d)">
<path d="M40.7695 104.029C41.2731 103.527 41.4738 102.834 41.4676 102.084C41.4614 101.336 41.2513 100.491 40.8866 99.6087C40.1565 97.842 38.7672 95.8301 36.9047 93.9715C35.0423 92.113 33.0262 90.7265 31.2559 89.9979C30.3718 89.634 29.5251 89.4244 28.7758 89.4182C28.0242 89.4119 27.3297 89.6123 26.8261 90.1148C26.3225 90.6174 26.1218 91.3104 26.128 92.0605C26.1342 92.8082 26.3443 93.6531 26.7089 94.5354C27.4391 96.3021 28.8284 98.314 30.6908 100.173C32.5533 102.031 34.5693 103.418 36.3397 104.146C37.2238 104.51 38.0705 104.72 38.8197 104.726C39.5714 104.732 40.2658 104.532 40.7695 104.029Z" stroke="#61DBFB" stroke-opacity="0.47"/>
<path d="M40.7695 104.029C41.2731 103.527 41.4738 102.834 41.4676 102.084C41.4614 101.336 41.2513 100.491 40.8866 99.6087C40.1565 97.842 38.7672 95.8301 36.9047 93.9715C35.0423 92.113 33.0262 90.7265 31.2559 89.9979C30.3718 89.634 29.5251 89.4244 28.7758 89.4182C28.0242 89.4119 27.3297 89.6123 26.8261 90.1148C26.3225 90.6174 26.1218 91.3104 26.128 92.0605C26.1342 92.8082 26.3443 93.6531 26.7089 94.5354C27.4391 96.3021 28.8284 98.314 30.6908 100.173C32.5533 102.031 34.5693 103.418 36.3397 104.146C37.2238 104.51 38.0705 104.72 38.8197 104.726C39.5714 104.732 40.2658 104.532 40.7695 104.029Z" stroke="url(#paint3_linear)"/>
</g>
<g filter="url(#filter3_d)">
<path d="M42.9594 97.3317C42.9594 95.9403 41.7339 94.8462 40.1444 94.1286C38.5086 93.3901 36.2838 92.9464 33.853 92.9464C31.4223 92.9464 29.1975 93.3901 27.5616 94.1286C25.9721 94.8462 24.7466 95.9403 24.7466 97.3317C24.7466 98.723 25.9721 99.8171 27.5616 100.535C29.1975 101.273 31.4223 101.717 33.853 101.717C36.2838 101.717 38.5086 101.273 40.1444 100.535C41.7339 99.8171 42.9594 98.723 42.9594 97.3317Z" stroke="#61DBFB" stroke-opacity="0.47"/>
<path d="M42.9594 97.3317C42.9594 95.9403 41.7339 94.8462 40.1444 94.1286C38.5086 93.3901 36.2838 92.9464 33.853 92.9464C31.4223 92.9464 29.1975 93.3901 27.5616 94.1286C25.9721 94.8462 24.7466 95.9403 24.7466 97.3317C24.7466 98.723 25.9721 99.8171 27.5616 100.535C29.1975 101.273 31.4223 101.717 33.853 101.717C36.2838 101.717 38.5086 101.273 40.1444 100.535C41.7339 99.8171 42.9594 98.723 42.9594 97.3317Z" stroke="url(#paint4_linear)"/>
</g>
<g filter="url(#filter4_d)">
<path d="M26.8565 103.994C27.3593 104.495 28.0516 104.698 28.8014 104.694C29.5486 104.69 30.3924 104.483 31.273 104.123C33.0363 103.402 35.0423 102.026 36.8935 100.179C38.7447 98.3312 40.1238 96.3294 40.8464 94.5697C41.2072 93.691 41.4142 92.8489 41.418 92.1032C41.4218 91.355 41.2194 90.6641 40.7166 90.1624C40.2138 89.6606 39.5215 89.4586 38.7717 89.4624C38.0245 89.4662 37.1807 89.6727 36.3001 90.0328C34.5368 90.7539 32.5308 92.1302 30.6796 93.9775C28.8284 95.8249 27.4493 97.8267 26.7267 99.5864C26.3658 100.465 26.1589 101.307 26.1551 102.053C26.1512 102.801 26.3537 103.492 26.8565 103.994Z" stroke="#61DBFB" stroke-opacity="0.47"/>
<path d="M26.8565 103.994C27.3593 104.495 28.0516 104.698 28.8014 104.694C29.5486 104.69 30.3924 104.483 31.273 104.123C33.0363 103.402 35.0423 102.026 36.8935 100.179C38.7447 98.3312 40.1238 96.3294 40.8464 94.5697C41.2072 93.691 41.4142 92.8489 41.418 92.1032C41.4218 91.355 41.2194 90.6641 40.7166 90.1624C40.2138 89.6606 39.5215 89.4586 38.7717 89.4624C38.0245 89.4662 37.1807 89.6727 36.3001 90.0328C34.5368 90.7539 32.5308 92.1302 30.6796 93.9775C28.8284 95.8249 27.4493 97.8267 26.7267 99.5864C26.3658 100.465 26.1589 101.307 26.1551 102.053C26.1512 102.801 26.3537 103.492 26.8565 103.994Z" stroke="url(#paint5_linear)"/>
</g>
<g filter="url(#filter5_d)">
<path d="M1 32.8638H5.85106L12.3191 32.0516L20.4042 30.4272L24.4468 29.615L30.1064 27.9906L34.9574 26.3662L39 24.7418L43.0425 23.1174L47.0851 21.493L51.1276 19.8685L53.5532 18.2441L55.9787 16.6197L58.4042 14.9953L61.6383 12.5587L64.8723 9.30986L67.2978 6.87324L68.9149 4.43662L70.5319 2L72.1489 4.43662L73.7659 6.87324L76.1914 9.30986L79.3617 12.5587L82.5958 14.9953L85.8298 16.6197L88.2554 18.2441L91.4894 19.8685L94.7234 21.493L99.5745 23.1174L103.617 24.7418L106.851 25.554L111.702 27.1784L118.979 28.8028L131.979 31.2394H140V36.9249V42.6103V48.0635V54.7934V62.9155L138.447 78.3474L136.021 92.9671L131.979 109.458L126.319 124.27L118.979 137.913L113.383 146.641L106.915 153.07L99.6382 159.568L84.2128 169.315L70.4681 175L55.9786 169.315L41.4254 159.568L34.1488 153.07L28.4892 146.641L21.2127 137.913L13.0639 124.27L8.21283 109.458L4.23404 92.9671L1.7809 78.3694L1 62.9155V54.7934V47.4836V42.6103V36.9249V32.8638Z" stroke="#E61B3C" stroke-width="2"/>
<path d="M1 32.8638H5.85106L12.3191 32.0516L20.4042 30.4272L24.4468 29.615L30.1064 27.9906L34.9574 26.3662L39 24.7418L43.0425 23.1174L47.0851 21.493L51.1276 19.8685L53.5532 18.2441L55.9787 16.6197L58.4042 14.9953L61.6383 12.5587L64.8723 9.30986L67.2978 6.87324L68.9149 4.43662L70.5319 2L72.1489 4.43662L73.7659 6.87324L76.1914 9.30986L79.3617 12.5587L82.5958 14.9953L85.8298 16.6197L88.2554 18.2441L91.4894 19.8685L94.7234 21.493L99.5745 23.1174L103.617 24.7418L106.851 25.554L111.702 27.1784L118.979 28.8028L131.979 31.2394H140V36.9249V42.6103V48.0635V54.7934V62.9155L138.447 78.3474L136.021 92.9671L131.979 109.458L126.319 124.27L118.979 137.913L113.383 146.641L106.915 153.07L99.6382 159.568L84.2128 169.315L70.4681 175L55.9786 169.315L41.4254 159.568L34.1488 153.07L28.4892 146.641L21.2127 137.913L13.0639 124.27L8.21283 109.458L4.23404 92.9671L1.7809 78.3694L1 62.9155V54.7934V47.4836V42.6103V36.9249V32.8638Z" stroke="url(#paint6_linear)" stroke-width="2"/>
<path d="M1 32.8638H5.85106L12.3191 32.0516L20.4042 30.4272L24.4468 29.615L30.1064 27.9906L34.9574 26.3662L39 24.7418L43.0425 23.1174L47.0851 21.493L51.1276 19.8685L53.5532 18.2441L55.9787 16.6197L58.4042 14.9953L61.6383 12.5587L64.8723 9.30986L67.2978 6.87324L68.9149 4.43662L70.5319 2L72.1489 4.43662L73.7659 6.87324L76.1914 9.30986L79.3617 12.5587L82.5958 14.9953L85.8298 16.6197L88.2554 18.2441L91.4894 19.8685L94.7234 21.493L99.5745 23.1174L103.617 24.7418L106.851 25.554L111.702 27.1784L118.979 28.8028L131.979 31.2394H140V36.9249V42.6103V48.0635V54.7934V62.9155L138.447 78.3474L136.021 92.9671L131.979 109.458L126.319 124.27L118.979 137.913L113.383 146.641L106.915 153.07L99.6382 159.568L84.2128 169.315L70.4681 175L55.9786 169.315L41.4254 159.568L34.1488 153.07L28.4892 146.641L21.2127 137.913L13.0639 124.27L8.21283 109.458L4.23404 92.9671L1.7809 78.3694L1 62.9155V54.7934V47.4836V42.6103V36.9249V32.8638Z" stroke="url(#paint7_linear)" stroke-width="2"/>
</g>
<g filter="url(#filter6_d)">
<path d="M10.7021 41.3672H14.8782L20.4463 40.6732L27.4065 39.2852L30.8866 38.5912L35.7587 37.2032L39.9347 35.8152L43.4148 34.4273L46.8949 33.0393L50.3749 31.6513L53.855 30.2633L55.9431 28.8753L58.0311 27.4873L60.1191 26.0993L62.9032 24.0173L65.6873 21.2413L67.7753 19.1593L69.1673 17.0773L70.5593 14.9953L71.9514 17.0773L73.3434 19.1593L75.4314 21.2413L78.1606 24.0173L80.9447 26.0993L83.7287 27.4873L85.8168 28.8753L88.6008 30.2633L91.3849 31.6513L95.561 33.0393L99.041 34.4273L101.825 35.1213L106.001 36.5092L112.265 37.8972L123.456 39.9792H130.362V44.8372V49.6952V54.3547V60.1052V67.0452L129.025 80.2311L126.936 92.7231L123.456 106.814L118.584 119.47L112.265 131.128L107.448 138.585L101.88 144.079L95.6159 149.631L82.3367 157.959L70.5045 162.817L58.031 157.959L45.5028 149.631L39.2386 144.079L34.3665 138.585L28.1024 131.128L21.0875 119.47L16.9114 106.814L13.4862 92.7231L11.3982 80.2311L10.7021 67.0452V60.1052V53.8592V49.6952V44.8372V41.3672Z" stroke="#A68A5C"/>
<path d="M10.7021 41.3672H14.8782L20.4463 40.6732L27.4065 39.2852L30.8866 38.5912L35.7587 37.2032L39.9347 35.8152L43.4148 34.4273L46.8949 33.0393L50.3749 31.6513L53.855 30.2633L55.9431 28.8753L58.0311 27.4873L60.1191 26.0993L62.9032 24.0173L65.6873 21.2413L67.7753 19.1593L69.1673 17.0773L70.5593 14.9953L71.9514 17.0773L73.3434 19.1593L75.4314 21.2413L78.1606 24.0173L80.9447 26.0993L83.7287 27.4873L85.8168 28.8753L88.6008 30.2633L91.3849 31.6513L95.561 33.0393L99.041 34.4273L101.825 35.1213L106.001 36.5092L112.265 37.8972L123.456 39.9792H130.362V44.8372V49.6952V54.3547V60.1052V67.0452L129.025 80.2311L126.936 92.7231L123.456 106.814L118.584 119.47L112.265 131.128L107.448 138.585L101.88 144.079L95.6159 149.631L82.3367 157.959L70.5045 162.817L58.031 157.959L45.5028 149.631L39.2386 144.079L34.3665 138.585L28.1024 131.128L21.0875 119.47L16.9114 106.814L13.4862 92.7231L11.3982 80.2311L10.7021 67.0452V60.1052V53.8592V49.6952V44.8372V41.3672Z" stroke="url(#paint8_linear)"/>
</g>
<defs>
<filter id="filter0_d" x="24.2385" y="50.3739" width="99.1381" height="106.137" filterUnits="userSpaceOnUse" color-interpolation-filters="sRGB">
<feFlood flood-opacity="0" result="BackgroundImageFix"/>
<feColorMatrix in="SourceAlpha" type="matrix" values="0 0 0 0 0 0 0 0 0 0 0 0 0 0 0 0 0 0 127 0"/>
<feOffset dx="2" dy="1"/>
<feGaussianBlur stdDeviation="1"/>
<feColorMatrix type="matrix" values="0 0 0 0 0 0 0 0 0 0 0 0 0 0 0 0 0 0 0.5 0"/>
<feBlend mode="normal" in2="BackgroundImageFix" result="effect1_dropShadow"/>
<feBlend mode="normal" in="SourceGraphic" in2="effect1_dropShadow" result="shape"/>
</filter>
<filter id="filter1_b" x="26.3115" y="89.3886" width="14.9671" height="14.9527" filterUnits="userSpaceOnUse" color-interpolation-filters="sRGB">
<feFlood flood-opacity="0" result="BackgroundImageFix"/>
<feGaussianBlur in="BackgroundImage" stdDeviation="2"/>
<feComposite in2="SourceAlpha" operator="in" result="effect1_backgroundBlur"/>
<feBlend mode="normal" in="SourceGraphic" in2="effect1_backgroundBlur" result="shape"/>
</filter>
<filter id="filter2_d" x="21.6273" y="88.9185" width="24.3409" height="24.307" filterUnits="userSpaceOnUse" color-interpolation-filters="sRGB">
<feFlood flood-opacity="0" result="BackgroundImageFix"/>
<feColorMatrix in="SourceAlpha" type="matrix" values="0 0 0 0 0 0 0 0 0 0 0 0 0 0 0 0 0 0 127 0"/>
<feOffset dy="4"/>
<feGaussianBlur stdDeviation="2"/>
<feColorMatrix type="matrix" values="0 0 0 0 0 0 0 0 0 0 0 0 0 0 0 0 0 0 0.25 0"/>
<feBlend mode="normal" in2="BackgroundImageFix" result="effect1_dropShadow"/>
<feBlend mode="normal" in="SourceGraphic" in2="effect1_dropShadow" result="shape"/>
</filter>
<filter id="filter3_d" x="20.2466" y="92.4464" width="27.2128" height="17.7706" filterUnits="userSpaceOnUse" color-interpolation-filters="sRGB">
<feFlood flood-opacity="0" result="BackgroundImageFix"/>
<feColorMatrix in="SourceAlpha" type="matrix" values="0 0 0 0 0 0 0 0 0 0 0 0 0 0 0 0 0 0 127 0"/>
<feOffset dy="4"/>
<feGaussianBlur stdDeviation="2"/>
<feColorMatrix type="matrix" values="0 0 0 0 0 0 0 0 0 0 0 0 0 0 0 0 0 0 0.25 0"/>
<feBlend mode="normal" in2="BackgroundImageFix" result="effect1_dropShadow"/>
<feBlend mode="normal" in="SourceGraphic" in2="effect1_dropShadow" result="shape"/>
</filter>
<filter id="filter4_d" x="21.6545" y="88.9629" width="24.2641" height="24.2303" filterUnits="userSpaceOnUse" color-interpolation-filters="sRGB">
<feFlood flood-opacity="0" result="BackgroundImageFix"/>
<feColorMatrix in="SourceAlpha" type="matrix" values="0 0 0 0 0 0 0 0 0 0 0 0 0 0 0 0 0 0 127 0"/>
<feOffset dy="4"/>
<feGaussianBlur stdDeviation="2"/>
<feColorMatrix type="matrix" values="0 0 0 0 0 0 0 0 0 0 0 0 0 0 0 0 0 0 0.25 0"/>
<feBlend mode="normal" in2="BackgroundImageFix" result="effect1_dropShadow"/>
<feBlend mode="normal" in="SourceGraphic" in2="effect1_dropShadow" result="shape"/>
</filter>
<filter id="filter5_d" x="0" y="0.191513" width="144" height="178.887" filterUnits="userSpaceOnUse" color-interpolation-filters="sRGB">
<feFlood flood-opacity="0" result="BackgroundImageFix"/>
<feColorMatrix in="SourceAlpha" type="matrix" values="0 0 0 0 0 0 0 0 0 0 0 0 0 0 0 0 0 0 127 0"/>
<feOffset dx="2" dy="2"/>
<feGaussianBlur stdDeviation="0.5"/>
<feColorMatrix type="matrix" values="0 0 0 0 0 0 0 0 0 0 0 0 0 0 0 0 0 0 0.25 0"/>
<feBlend mode="normal" in2="BackgroundImageFix" result="effect1_dropShadow"/>
<feBlend mode="normal" in="SourceGraphic" in2="effect1_dropShadow" result="shape"/>
</filter>
<filter id="filter6_d" x="10.2021" y="14.0957" width="123.66" height="152.26" filterUnits="userSpaceOnUse" color-interpolation-filters="sRGB">
<feFlood flood-opacity="0" result="BackgroundImageFix"/>
<feColorMatrix in="SourceAlpha" type="matrix" values="0 0 0 0 0 0 0 0 0 0 0 0 0 0 0 0 0 0 127 0"/>
<feOffset dx="2" dy="2"/>
<feGaussianBlur stdDeviation="0.5"/>
<feColorMatrix type="matrix" values="0 0 0 0 0 0 0 0 0 0 0 0 0 0 0 0 0 0 0.25 0"/>
<feBlend mode="normal" in2="BackgroundImageFix" result="effect1_dropShadow"/>
<feBlend mode="normal" in="SourceGraphic" in2="effect1_dropShadow" result="shape"/>
</filter>
<radialGradient id="paint0_radial" cx="0" cy="0" r="1" gradientUnits="userSpaceOnUse" gradientTransform="translate(95.9409 91.0892) rotate(141.77) scale(141.266 129.69)">
<stop stop-opacity="0.54"/>
<stop offset="1" stop-color="#B4293F" stop-opacity="0.28"/>
</radialGradient>
<linearGradient id="paint1_linear" x1="71.2809" y1="51.8739" x2="71.2809" y2="153.18" gradientUnits="userSpaceOnUse">
<stop stop-color="white"/>
<stop offset="1" stop-color="white" stop-opacity="0"/>
</linearGradient>
<linearGradient id="paint2_linear" x1="33.7951" y1="93.3886" x2="35.6322" y2="100.343" gradientUnits="userSpaceOnUse">
<stop stop-color="#61DBFB" stop-opacity="0.71"/>
<stop offset="1" stop-color="#0E3944"/>
</linearGradient>
<linearGradient id="paint3_linear" x1="27.18" y1="90.468" x2="40.3881" y2="103.703" gradientUnits="userSpaceOnUse">
<stop stop-color="#8BD0E2"/>
<stop offset="1" stop-color="#1A8DAB" stop-opacity="0.72"/>
</linearGradient>
<linearGradient id="paint4_linear" x1="25.2466" y1="97.3317" x2="42.4594" y2="97.3317" gradientUnits="userSpaceOnUse">
<stop stop-color="#61DBFB"/>
<stop offset="1" stop-color="white" stop-opacity="0"/>
</linearGradient>
<linearGradient id="paint5_linear" x1="40.3627" y1="90.5156" x2="27.2377" y2="103.668" gradientUnits="userSpaceOnUse">
<stop stop-color="#61DBFB"/>
<stop offset="1" stop-color="white" stop-opacity="0"/>
</linearGradient>
<linearGradient id="paint6_linear" x1="1" y1="34.4883" x2="71.0099" y2="174.745" gradientUnits="userSpaceOnUse">
<stop stop-color="#FFB0B0"/>
<stop offset="1" stop-color="#E61B3C" stop-opacity="0"/>
</linearGradient>
<linearGradient id="paint7_linear" x1="115" y1="146.573" x2="-15.4475" y2="74.7903" gradientUnits="userSpaceOnUse">
<stop stop-opacity="0.62"/>
<stop offset="1" stop-color="#B4293F" stop-opacity="0"/>
</linearGradient>
<linearGradient id="paint8_linear" x1="10.7021" y1="40.9859" x2="70.9721" y2="162.599" gradientUnits="userSpaceOnUse">
<stop stop-color="white"/>
<stop offset="1" stop-color="#A68A5C" stop-opacity="0"/>
</linearGradient>
</defs>
</svg>
